<?xml version="1.0" encoding="UTF-8"?>
<svg id="Lager_1" xmlns="http://www.w3.org/2000/svg" version="1.1" viewBox="0 0 1208.4 651.8">
  <!-- Generator: Adobe Illustrator 29.5.1, SVG Export Plug-In . SVG Version: 2.1.0 Build 141)  -->
  <defs>
    <style>
      .st0 {
        fill: #1a171b;
      }

      .st1 {
        fill: #fff;
      }

      .st2 {
        fill: #5ec4ec;
      }
    </style>
  </defs>
  <g id="Bubbla_vit">
    <path class="st1" d="M1032.9,406.8c-81.9,47.4-228.6,71.4-448.4,73.4-20.9.2-40.9,0-60.3-.2,0,0-.2,0-.2,0-1.1,0-2.2,0-3.3,0-1.9,0-4,1-5.1,2.7-49.7,73.4-100.1,114-134.4,135.5,51.2-53.2,71.9-100.3,80-132.5.5-1.8,0-3.7-1-5.1-1.1-1.5-2.8-2.4-4.6-2.4C77.1,462.1,44.5,352.5,43.6,250.9c-1-108.8,59.3-234.2,537.1-238.7,7.3,0,14.5,0,21.6,0,458.5,0,518.4,122.6,519.3,229.4.5,56-9.7,119.5-88.7,165.2h0Z"/>
  </g>
  <g id="Linjer">
    <path class="st2" d="M438.2,140.1c-2.6,0-4.1-.6-5.2-1.1-2.2-.9-4.6-.5-6.2-.7-1.3-.2-3.5-.5-5.4.2-1,.4-2.5.9-5,.9s-2.9,0-3.8,0c-.9,0-1.7,0-3.4,0s-3,0-3.9-.1c-.8,0-1.7-.1-3.3-.1s-3.1-.1-4.2-.3c-1.6-.2-4.8-.2-6.4,0-1.6.1-4.5,0-6.5.5-1,.3-2.3.6-4.7.6s-3.7-.4-4.8-.7c-1.5-.4-3.4-.5-4.9,0-1,.3-2.4.8-4.9.8s-3.8-.4-4.8-.7c-.8-.2-1.2-.4-2.4-.4-2.2,0-3.5-.3-4.5-.5-1.4-.3-3.1-.6-4.9.1-1.1.5-2.6,1.1-5.2,1.1s-4.1-.6-5.1-1c-1.8-.7-3.5-.4-4.9-.1-1,.2-2.2.5-4.5.5s-2.5,0-3.4.1c-1,0-2,.1-3.9.1s-3.7-.4-4.7-.7c-1.7-.5-4.3-.3-5.7-.2-1,.1-2,.2-4.1.2s-3.2-.2-4.2-.3c-1.2-.2-2.9-.7-4.9.2-1,.5-2.7,1.3-5.4,1.3s-4.4-.8-5.4-1.3c-1.8-.9-3.3-.5-4.6-.2-1,.2-2.3.5-4.5.5h-7.3c-1.9,0-2.8,0-3.8-.1-1.6,0-4.4-.2-6.2.2-1,.2-2.3.5-4.5.5h-7.3c-2.1,0-3.1,0-4.2-.2-1.6-.2-4.8-.2-6.5-.1-1.7,0-4.7,0-6.7.4-1,.2-2.2.5-4.4.5s-4.2-.7-5.3-1.1c-2.2-1-4.3-.5-5.7-.5-1.6,0-5,0-6.6.1-1,.1-2.1.3-4.1.3s-2.2.1-2.9.3c-1.1.2-2.2.4-4.4.4s-3.6-.3-4.7-.6c-1.4-.4-3-.6-4.7,0-1.1.4-2.5,1-5.2,1s-4.2-.7-5.3-1.2c-.7-.3-1-.5-2-.5h-7.2c-1,0-1.3.1-2.1.4-1.1.5-2.5,1-5.2,1s-3.6-.3-4.6-.6c-1.7-.4-4.2-.3-5.6,0-1.1.2-2.1.4-4.3.4s-3.1-.1-4.2-.3c-1.6-.2-4.9-.2-6.5-.1-1,0-1.9.1-3.9.1s-4-1.8-4-4,1.8-4,4-4,2.5,0,3.4,0c1,0,1.9-.1,3.9-.1s3.1.1,4.2.3c1.5.2,4.5.2,6,0,1.1-.2,2.1-.4,4.3-.4s3.6.3,4.6.6c1.4.4,3,.6,4.7-.1,1.1-.5,2.5-1,5.2-1h7.2c2.7,0,4.2.7,5.3,1.2,1.5.7,2.6.6,4.1,0,1.1-.4,2.5-1,5.2-1s3.6.3,4.7.6c1.7.4,4.1.3,5.5,0,1.1-.2,2.2-.4,4.4-.4s2.3-.1,3.1-.2c1-.1,2.1-.3,4.1-.3s2.8,0,3.8,0c.9,0,1.8,0,3.5,0,2.7,0,4.2.7,5.3,1.1,1.8.8,3.4.4,4.8.2,1-.2,2.2-.5,4.4-.5s2.5,0,3.4-.1c1,0,1.9-.1,3.9-.1s3.1.1,4.2.3c.8.1,1.5.2,3.1.2h7.3c1.4,0,1.9-.2,2.7-.4,1-.2,2.3-.5,4.5-.5s2.8,0,3.8,0c.9,0,1.7,0,3.5,0h7.3c1.4,0,1.9,0,2.7-.3,1-.2,2.3-.5,4.5-.5s4.4.8,5.4,1.3c1.5.7,2.2.7,3.7,0,1-.5,2.7-1.3,5.4-1.3s3.2.2,4.2.3c1.5.2,4.7.2,6.2,0,1-.1,2-.2,4.1-.2s3.7.4,4.7.7c1.8.5,4.4.4,5.9.2,1.7-.1,4.7,0,6.7-.4,1-.2,2.2-.5,4.5-.5s4.1.6,5.1,1c1.5.6,2.7.6,4.2,0,1.1-.5,2.6-1.1,5.2-1.1s3.5.3,4.5.5c.8.2,1.4.3,2.8.3,2.4,0,3.8.4,4.8.7,1.5.5,3.3.5,4.8,0s2.4-.8,4.9-.8,3.7.4,4.7.7c1.5.5,3.5.4,5.1,0,1-.3,2.3-.6,4.7-.6s2.5,0,3.3-.1c1,0,2-.2,4-.2s3.1.1,4.2.3c.8.1,1.5.2,3.1.2s3,0,3.9.1c.8,0,1.7.1,3.3.1s2.9,0,3.8,0c1.4,0,3.7.4,5.7-.3,1-.4,2.5-.9,5-.9s3.1.1,4.1.2c.8,0,1.6.2,3.1.2,2.6,0,4.1.6,5.2,1.1,1.4.6,2.6.6,4.1,0,1.1-.5,2.6-1.1,5.2-1.1s3.2.2,4.3.4c1.4.2,3.9.4,5.6,0,1-.3,2.3-.6,4.6-.6s2.9,0,3.9.1c.9,0,1.7,0,3.4,0,2.6,0,4.1.6,5.1,1,1.4.6,2.6.7,4.1,0,1.1-.5,2.6-1.2,5.3-1.2s4,.5,5,.9c2,.8,4.5.4,6,.5,1.7,0,5,0,6.6-.1,1-.1,2.1-.3,4.2-.3s1.9-.1,2.7-.3c1-.2,2.3-.5,4.5-.5s4.2.7,5.3,1.2c1.4.6,2.1.8,3.7,0,1.1-.6,2.7-1.4,5.5-1.4s3.1.1,4.1.2c.8,0,1.6.2,3.2.2,2.4,0,3.7.4,4.8.7,1.5.5,3.1.6,4.7,0,1.1-.4,2.5-1,5.1-1s3.2.2,4.3.4c.8.1,1.5.2,3,.2s3,0,4,.2c.8,0,1.6.1,3.2.1s3.1.1,4.2.3c.8.1,1.6.2,3.1.2s2.9,0,3.8.1c1.6,0,4.8.1,6.5-.1,1.1-.2,2.1-.3,4.2-.3s3.5.2,4.4.5c1.7.4,4.4.3,5.9,0,1-.1,2.1-.3,4.2-.3s3,0,4,.1c1.8.1,5.3.1,7.1.2h3.5c1.1,0,1.5,0,2.2-.4,1-.4,2.5-.9,5-.9h7.3c1.7,0,2.5-.1,3.3-.2,1,0,2-.1,4-.1s4,.5,5.1,1c1.6.6,3.2.5,4.7,0,1.1-.3,2.4-.7,4.8-.7h7.3c2.1,0,3.1,0,4.1.2.8,0,1.6.2,3.2.2h7.3s7.3,0,7.3,0c1.6,0,2.4,0,3.2-.2,1-.1,2-.2,4.1-.2s3,0,4,.2c1.6.1,4.8.1,6.4,0,1-.1,2-.2,4.1-.2s3.7.4,4.7.6c2,.5,4.8.4,6.4.5.8,0,1.7,0,3.4,0s3,0,4,.2c1.4.1,4,.3,5.8-.2,1.1-.3,2.4-.7,4.8-.7s2.9,0,3.9.1c.9,0,1.7,0,3.4,0s3.1.1,4.2.3c.8.1,1.6.2,3.1.2s3,0,4,.2c1.4.1,3.7.4,5.6-.2,1-.4,2.5-.9,5-.9s2.3-.1,3.1-.2c1-.1,2.1-.3,4.1-.3s3.6.4,4.7.6c.8.2,1.3.4,2.6.4h7.3c1.9,0,2.9,0,3.8,0,1.6,0,4.8,0,6.4-.2,1.1-.2,2.2-.4,4.3-.4s3.1.1,4.1.2c.8,0,1.6.2,3.2.2s3.1.1,4.1.3c1.4.2,4,.3,5.8-.1,1-.3,2.3-.6,4.7-.6s3.3.2,4.4.4c.7.1,1.4.3,2.9.3h7.3c2.1,0,3.1.2,4.1.3,1.7.2,5.2.2,6.9.2,1.5,0,4.4.1,6.2-.3,1-.2,2.3-.5,4.6-.5s1.8-.1,2.6-.4c1-.3,2.3-.6,4.7-.6s3.6.3,4.6.6c.8.2,1.3.3,2.7.3,2.2,0,3.3.2,4.4.4,1.3.3,3.7.4,5.4-.1,1.1-.3,2.4-.7,4.8-.7h3.5c1.9,0,5.7,0,7.6,0,1.7,0,5,0,6.7,0,1-.1,2-.2,4-.2s3,0,3.9.1c1.6.1,4.9.1,6.5,0,1-.1,2.1-.2,4.1-.2s4.2.7,5.3,1.2c1.5.7,2.5.6,4,0,1.1-.5,2.6-1.1,5.3-1.1s4.4.8,5.5,1.4c2.1,1.1,3.7.5,4.9.3,1.1-.1,2.1-.3,4.2-.3s1.8-.1,2.6-.4c1.1-.3,2.3-.6,4.7-.6s4,.5,5,.9c1.8.6,4,.4,5.3.2,1.1-.2,2.1-.3,4.3-.3s2-.1,2.8-.3c1-.2,2.2-.5,4.5-.5s4.1.6,5.2,1c1.4.5,2.3.8,3.9,0,1.1-.5,2.7-1.4,5.5-1.4s4.1.6,5.2,1c.7.3,1.1.5,2.1.5h7.3c2,0,2.9,0,3.9,0,1.7.1,5.1.1,6.8,0,1,0,2-.1,3.9-.1s2.4,0,3.2-.2c1-.1,2.1-.2,4.1-.2s2.3-.1,3.1-.2c1.1-.1,2.1-.3,4.2-.3s2.9,0,3.8,0c1.6,0,4.9,0,6.5-.2,1.1-.2,2.1-.3,4.3-.3s3.3.2,4.4.4c.7.1,1.5.3,2.9.3,2.2,0,3.2.2,4.3.4,1.4.2,3.9.4,5.6-.1,1.1-.3,2.4-.7,4.8-.7s4.2.7,5.3,1.2c1.5.7,2.5.7,4,0,1.1-.5,2.6-1.2,5.3-1.2s3.2.1,4.2.3c1.6.2,4.9.2,6.5.1,1.9-.1,5.6-.1,7.5-.2.9,0,1.9,0,3.8,0s3.2.1,4.2.3c.8.1,1.6.2,3.2.2s3.1.1,4.1.2c.8,0,1.6.2,3.2.2s2.8,0,3.8,0c1.8,0,5.2,0,6.9,0,1,0,2-.1,4-.1s3.1.1,4.1.2c1.5.2,4.1.3,5.9-.2,1.1-.3,2.4-.6,4.7-.6s3.2.2,4.3.3c.8.1,1.5.2,3.1.2,2.2,0,4.1,1.8,4.1,4s-1.8,4-4.1,4-3.2-.2-4.3-.3c-1.4-.2-4-.4-5.7.1-1.1.3-2.4.6-4.8.6s-3.1-.1-4.1-.2c-1.7-.2-5-.2-6.6,0-1,0-2,.1-4,.1s-2.8,0-3.8,0c-.9,0-1.8,0-3.5,0s-3.1-.1-4.1-.2c-.8,0-1.6-.2-3.2-.2s-3.2-.1-4.2-.3c-1.7-.2-5-.2-6.7-.1-1.8,0-5.4,0-7.2.2-1,0-2,.1-3.9.1s-3.2-.1-4.2-.3c-1.2-.2-3.2-.6-5.1.3-1.1.5-2.6,1.2-5.3,1.2s-4.2-.7-5.3-1.2c-1.8-.8-3.2-.5-4.5-.1-1.1.3-2.4.7-4.8.7s-3.2-.2-4.3-.4c-.8-.1-1.5-.2-3-.2-2.2,0-3.3-.2-4.4-.4-1.5-.3-4.5-.3-6,0-1.1.2-2.1.3-4.3.3s-2.9,0-3.8,0c-1.6,0-4.9,0-6.5.1-1.1.1-2.1.3-4.2.3s-2.4,0-3.2.2c-1,.1-2.1.2-4.1.2s-2.5,0-3.4.1c-2,.1-5.9.1-7.8,0-.8,0-1.7-.1-3.4-.1h-7.3c-2.6,0-4.1-.5-5.2-1-1.3-.6-2.3-.8-3.9,0-1.1.5-2.7,1.4-5.5,1.4s-4.1-.6-5.2-1c-1.8-.7-3.5-.4-5-.1-1,.2-2.2.5-4.5.5s-2.3.1-3,.2c-1.1.2-2.1.3-4.3.3s-4-.5-5-.9c-1.6-.6-3.4-.5-4.9,0-1.1.3-2.3.6-4.7.6s-2.3.1-3.1.2c-1.1.1-2.1.3-4.2.3s-4.4-.8-5.5-1.4c-1.6-.8-2.4-.6-3.8,0-1.1.5-2.6,1.1-5.3,1.1s-4.2-.7-5.3-1.2c-2-.9-3.9-.4-5.1-.3-1,.1-2.1.2-4.1.2s-3,0-3.9-.1c-1.6-.1-4.9-.1-6.6,0-1,.1-2,.2-4.1.2s-2.9,0-3.8,0c-.9,0-1.7,0-3.5,0h-3.5c-1.6,0-4.2-.1-6.2.5-1.1.3-2.4.7-4.8.7s-3.3-.2-4.4-.4c-.7-.1-1.4-.3-2.9-.3-2.3,0-3.6-.3-4.6-.6-1.6-.4-3.7-.4-5.3,0-1,.3-2.3.6-4.7.6s-1.9.1-2.7.3c-1,.2-2.3.5-4.6.5s-2.8,0-3.8,0c-.9,0-1.8,0-3.5,0s-3.1-.1-4.1-.2c-.8-.1-1.6-.2-3.2-.2h-7.3c-2.2,0-3.3-.3-4.4-.5-1.4-.3-3.8-.4-5.5,0-1,.3-2.3.6-4.7.6s-3.1-.1-4.1-.3c-.8,0-1.6-.2-3.1-.2s-3.1-.1-4.1-.2c-1.6-.2-4.6-.2-6.1,0-1.1.2-2.2.4-4.3.4s-2.9,0-3.8,0c-.9,0-1.7,0-3.4,0h-7.3c-2.4,0-3.7-.3-4.7-.5-1.7-.5-4.3-.3-5.7-.1-1.6.2-4.3,0-6.4.7-1,.4-2.5.9-5,.9s-3,0-4-.2c-.8,0-1.6-.2-3.3-.2s-3.1-.1-4.2-.3c-.8-.1-1.6-.2-3.1-.2s-2.9,0-3.9-.1c-1.5,0-4-.3-5.9.3-1.1.3-2.4.7-4.8.7s-3,0-4-.2c-.8,0-1.6-.1-3.2-.1s-2.9,0-3.9-.1c-.8,0-1.7,0-3.4,0s-3.6-.4-4.7-.6c-1.8-.5-4.3-.3-5.7-.2-1,.1-2,.2-4.1.2s-3,0-4-.2c-1.6-.2-4.8-.1-6.4,0-1,.1-2,.2-4.1.2h-7.3s-7.3,0-7.3,0c-2.1,0-3.1-.1-4.1-.2-.8-.1-1.6-.2-3.2-.2h-7.3c-1.2,0-1.7.2-2.5.4-1.1.3-2.4.7-4.8.7s-4-.5-5.1-1c-1.9-.7-4.2-.4-5.5-.3-1,0-2,.1-4,.1h-7.3c-1.1,0-1.5.2-2.3.5-1,.4-2.5.9-5,.9s-2.8,0-3.8,0h-3.5c-2,0-3-.1-4-.2-1.6-.1-4.8-.1-6.4,0-1,.1-2.1.3-4.2.3s-3.5-.2-4.5-.5c-1.7-.4-4.4-.3-5.8,0-1.1.2-2.1.3-4.2.3s-2.9,0-3.9-.1c-.9,0-1.7,0-3.4,0s-3.1-.1-4.2-.3c-.8-.1-1.6-.2-3.1-.2s-3,0-4-.2c-.8,0-1.6-.1-3.3-.1s-3.2-.2-4.3-.4c-1.3-.2-3.4-.5-5.2.2-1.1.4-2.5,1-5.1,1s-3.8-.4-4.8-.7c-2.1-.6-4.9-.4-6.6-.6-1.2-.1-2.8-.9-4.9.3-1.1.6-2.7,1.4-5.5,1.4s-4.2-.7-5.4-1.2c-1.8-.9-3.3-.5-4.7-.1-1,.2-2.3.5-4.6.5s-2.3.1-3.1.2c-1,.1-2.1.3-4.2.3s-2.8,0-3.8,0c-.9,0-1.8,0-3.5,0-2.5,0-4-.5-5-.9-1.4-.5-2.7-.7-4.2,0-1.1.5-2.6,1.2-5.3,1.2s-4.1-.6-5.1-1c-2.1-.9-4.5-.5-6-.5-1.5,0-4.2-.2-6.1.2-1,.3-2.3.6-4.6.6s-3.2-.2-4.3-.4c-1.2-.2-3.1-.6-5,.2-1.1.5-2.6,1.1-5.2,1.1h0Z"/>
    <path class="st2" d="M496.9,280.6c-2.7,0-4.2-.7-5.3-1.2-.7-.3-1-.5-1.9-.5-2.1,0-3.1-.1-4.2-.3-1.3-.2-3.3-.5-5.2.2-1.1.4-2.5,1-5.2,1s-2.9,0-3.9-.1c-.8,0-1.7,0-3.4,0s-3,0-4-.2c-.8,0-1.6-.1-3.3-.1s-3.2-.1-4.2-.3c-1.6-.2-4.7-.2-6.3,0-1.6.2-4.4,0-6.5.6-1.1.3-2.4.7-4.8.7s-3.8-.4-4.8-.8c-1.5-.5-3.2-.5-4.7,0-1,.4-2.5.9-5,.9s-3.9-.5-4.9-.8c-.8-.3-1.2-.4-2.3-.4-2.3,0-3.5-.3-4.5-.5-1.3-.3-2.8-.7-4.7.1-1.1.5-2.6,1.2-5.3,1.2s-4.2-.6-5.2-1.1c-1.8-.8-3.4-.5-4.7-.1-1,.2-2.3.5-4.6.5s-2.5,0-3.3.1c-1,0-2,.1-3.9.1s-3.8-.4-4.8-.7c-1.8-.6-4.2-.4-5.6-.2-1,.1-2.1.3-4.2.3s-3.2-.2-4.3-.4c-1.2-.2-2.6-.9-4.7.2-1.1.6-2.7,1.4-5.5,1.4s-4.5-.9-5.6-1.5c-1.9-1-3.1-.5-4.4-.2-1,.3-2.3.6-4.6.6h-7.3c-1.9,0-2.9,0-3.8-.1-1.5,0-4.2-.2-6.1.3-1,.2-2.3.6-4.6.6h-7.3c-2.1,0-3.2,0-4.2-.2-1.6-.2-4.8-.2-6.4-.1-1.7.1-4.7,0-6.6.4-1,.2-2.2.5-4.5.5s-4.3-.8-5.4-1.3c-2.3-1.1-4.2-.5-5.6-.5-1.6,0-4.9,0-6.5.1-1,.1-2.1.3-4.2.3s-2,.1-2.8.3c-1,.2-2.2.5-4.4.5s-3.7-.4-4.8-.7c-1.4-.4-2.8-.6-4.5,0-1.1.5-2.6,1.2-5.3,1.2s-4.3-.8-5.4-1.3c-.7-.4-1-.5-1.8-.5h-7.2c-.9,0-1.2,0-2,.4-1.1.5-2.6,1.2-5.3,1.2s-3.7-.4-4.7-.6c-1.7-.5-4.1-.3-5.4,0-1.1.2-2.2.4-4.3.4s-3.2-.2-4.2-.3c-1.6-.2-4.8-.2-6.4-.1-1.7.1-4.7,0-6.6.4-1,.2-2.2.5-4.5.5h-7.2c-2.1,0-3.1,0-4.2-.2-.8-.1-1.5-.2-3.1-.2-2.6,0-4.1-.6-5.2-1-1.4-.6-2.4-.7-4,0-1,.5-2.6,1.2-5.4,1.2s-3,0-4-.2c-1.6-.2-4.8-.1-6.4,0-1,.1-2,.2-4.1.2s-4-.5-5-.9c-.8-.3-1.1-.4-2.3-.4h-7.3c-1,0-1.4.2-2.1.5-1.1.4-2.5,1-5.1,1s-4.1-.6-5.2-1.1c-.8-.3-1-.5-2-.5h-7.3c-1.7,0-2.6,0-3.4,0-1,0-1.9,0-3.8,0h-7.3c-1.2,0-1.7.2-2.5.4-1.1.3-2.4.7-4.8.7s-4.1-.6-5.2-1.1c-.8-.3-1.1-.5-2-.5-2.2,0-4-1.8-4-4s1.8-4,4-4,4.1.6,5.2,1.1c1.7.7,3.1.5,4.5,0,1.1-.3,2.4-.7,4.8-.7h7.3c1.7,0,2.6,0,3.4-.1,1,0,1.9,0,3.8,0h7.3c2.6,0,4.1.6,5.2,1.1,1.5.7,2.8.6,4.2,0,1.1-.4,2.5-1,5.1-1h7.3c2.5,0,4,.5,5,.9,1.8.6,4.1.4,5.4.2,1-.1,2-.2,4.1-.2s3,0,4,.2c1.2.1,3.1.6,5.1-.3,1-.5,2.6-1.2,5.4-1.2s4.1.6,5.2,1c2.2.9,4.7.5,6.3.7.8.1,1.5.2,3.1.2h7.2c1.4,0,2-.2,2.8-.3,1-.2,2.2-.5,4.5-.5s2.5,0,3.4-.1c1,0,1.9-.1,3.9-.1s3.2.2,4.2.3c1.5.2,4.5.2,5.9,0,1.1-.2,2.2-.4,4.3-.4s3.7.4,4.7.6c1.3.4,2.8.7,4.5-.1,1.1-.5,2.6-1.2,5.3-1.2h7.2c2.8,0,4.4.8,5.4,1.4,1.5.7,2.4.7,3.8,0,1.1-.5,2.6-1.2,5.3-1.2s3.7.4,4.8.7c1.7.5,3.8.4,5.3,0,1-.2,2.2-.5,4.4-.5s2.3-.1,3.1-.2c1-.1,2.1-.3,4.2-.3s2.8,0,3.8,0c.9,0,1.7,0,3.5,0,2.8,0,4.3.8,5.4,1.3,1.8.9,3.3.5,4.6.2,1-.2,2.3-.5,4.5-.5s2.5,0,3.4-.1c1,0,1.9-.1,3.9-.1s3.2.2,4.2.3c.8.1,1.5.2,3,.2h7.3c1.3,0,1.9-.2,2.7-.4,1-.2,2.3-.6,4.6-.6s2.8,0,3.8,0c.9,0,1.7,0,3.5,0h7.3c1.3,0,1.8,0,2.7-.3,1-.3,2.3-.6,4.6-.6s4.5.9,5.6,1.5c1.5.8,2,.8,3.5,0,1.1-.6,2.7-1.4,5.5-1.4s3.2.2,4.3.4c1.5.2,4.6.2,6.1,0,1-.1,2.1-.3,4.1-.3s3.8.4,4.8.7c1.8.6,4.3.4,5.8.2,1.7-.1,4.7,0,6.7-.5,1-.2,2.3-.5,4.6-.5s4.2.6,5.2,1.1c1.4.6,2.5.7,4,0,1.1-.5,2.6-1.2,5.3-1.2s3.5.3,4.5.5c.8.2,1.4.3,2.7.3,2.5,0,3.9.5,4.9.8,1.5.5,3.1.5,4.6,0,1-.4,2.5-.9,5-.9s3.8.4,4.8.8c1.5.5,3.3.5,4.9,0,1.1-.3,2.4-.7,4.8-.7s2.4,0,3.2-.2c1-.1,2-.2,4-.2s3.2.1,4.2.3c.8.1,1.5.2,3,.2s3,0,4,.2c.8,0,1.6.1,3.3.1s2.9,0,3.9.1c1.4,0,3.5.5,5.5-.4,1.1-.4,2.5-1,5.2-1s3.1.1,4.2.3c.8.1,1.5.2,3.1.2,2.7,0,4.2.7,5.3,1.2,1.5.6,2.4.7,3.8,0,1-.5,2.6-1.3,5.4-1.3s3.3.2,4.4.4c1.4.2,3.8.4,5.5,0,1-.3,2.3-.6,4.7-.6s2.9,0,3.9.1c.8,0,1.7.1,3.4.1,2.7,0,4.2.7,5.3,1.1,1.4.6,2.3.7,3.9,0,1.1-.5,2.7-1.3,5.4-1.3s4.1.6,5.2,1c2.1.9,4.4.5,5.9.5,1.6,0,4.9,0,6.5-.2,1.1-.2,2.1-.3,4.2-.3s1.8-.1,2.7-.3c1-.3,2.3-.6,4.6-.6s4.4.8,5.5,1.4c1.3.7,1.8.9,3.4,0,1.1-.6,2.8-1.6,5.7-1.6s3.1.1,4.1.3c.8.1,1.6.2,3.1.2,2.5,0,3.9.5,4.9.8,1.4.5,2.8.6,4.4,0,1.1-.5,2.6-1.1,5.2-1.1s3.3.2,4.4.4c.7.1,1.5.3,2.9.3s3,.1,4,.2c.8,0,1.6.2,3.2.2s3.2.1,4.2.3c.8.1,1.5.2,3.1.2s2.9,0,3.9.1c1.6.1,4.7.1,6.3-.1,1.1-.2,2.2-.4,4.3-.4s3.5.3,4.5.5c1.7.4,4.3.3,5.8,0,1.1-.2,2.1-.3,4.2-.3s3,0,4,.2c1.8.1,5.3.1,7.1.2,1.4,0,3.6.4,5.7-.4,1.1-.4,2.5-1,5.1-1h7.3c1.7,0,2.5-.1,3.3-.2,1,0,2-.2,4-.2s4.1.6,5.2,1.1c1.6.7,3,.5,4.5,0,1-.3,2.4-.8,4.9-.8h7.3c2.1,0,3.1,0,4.2.2.8.1,1.6.2,3.1.2h7.3c0,0,7.2,0,7.2,0,1.6,0,2.4,0,3.1-.2,1-.1,2.1-.2,4.1-.2s3,.1,4,.2c1.6.2,4.8.2,6.3,0,1-.1,2.1-.2,4.1-.2s3.7.4,4.8.7c2,.6,4.8.4,6.3.5.8,0,1.7.1,3.4.1s3,.1,4.1.2c1.4.1,3.9.3,5.7-.2,1-.3,2.4-.8,4.9-.8s2.9,0,3.9.1c.9,0,1.7.1,3.4.1s3.2.1,4.2.3c.8.1,1.5.2,3.1.2s3.1.1,4.1.2c1.3.1,3.5.5,5.4-.3,1.1-.4,2.5-1,5.1-1s2.3-.1,3.1-.2c1.1-.1,2.1-.3,4.2-.3s3.7.4,4.8.7c1.9.6,4.5.4,6,.3,1.9,0,5.7,0,7.6,0,1.6,0,4.7.1,6.3-.2,1.1-.2,2.2-.4,4.4-.4s3.1.1,4.1.2c.8,0,1.6.2,3.2.2s3.1.1,4.2.3c1.4.2,3.9.3,5.6-.1,1.1-.3,2.4-.7,4.8-.7s3.5.3,4.5.5c.8.2,1.4.3,2.8.3h7.3c2.1,0,3.1.2,4.2.4.8.1,1.6.2,3.1.2s2.8,0,3.8,0c1.5,0,4.3.2,6.2-.3,1-.3,2.3-.6,4.7-.6s1.7-.1,2.5-.4c1.1-.3,2.4-.7,4.8-.7s3.7.4,4.7.6c.8.2,1.3.4,2.6.4,2.2,0,3.5.3,4.5.5,1.5.3,3.5.5,5.2-.1,1-.4,2.4-.8,4.9-.8s2.6,0,3.5,0c1.9,0,5.7,0,7.6,0,1.6,0,5,0,6.6,0,1-.1,2.1-.2,4.1-.2s3,0,4,.2c1.6.1,4.8.1,6.4,0,1.1-.1,2.1-.3,4.2-.3s4.4.8,5.4,1.3c1.5.7,2.3.7,3.8,0,1.1-.5,2.7-1.3,5.4-1.3s4.6.9,5.7,1.6c2.2,1.2,3.5.5,4.7.3,1.1-.2,2.2-.3,4.3-.3s1.7-.1,2.5-.4c1.1-.3,2.4-.7,4.8-.7s4.1.6,5.1,1c1.8.7,3.9.4,5.1.2,1.1-.2,2.2-.4,4.3-.4s1.9-.1,2.8-.3c1-.2,2.3-.5,4.6-.5s4.2.7,5.3,1.1c1.3.6,2.1.9,3.7,0,1.1-.6,2.8-1.6,5.7-1.6s4.2.7,5.3,1.2c.7.3,1,.5,2,.5h7.3c2,0,2.9,0,3.9,0,1.7.1,5,.1,6.7,0,1,0,2-.1,3.9-.1s2.4-.1,3.1-.2c1-.1,2.1-.3,4.2-.3s2.3-.1,3.1-.2c1.1-.2,2.1-.3,4.3-.3s2.9,0,3.9,0c1.6,0,4.8.1,6.5-.2,1.1-.2,2.2-.4,4.3-.4s3.3.2,4.4.4c.7.1,1.4.3,2.9.3,2.2,0,3.3.2,4.4.4,1.3.2,3.7.4,5.4-.1,1.1-.3,2.4-.8,4.9-.8s4.4.8,5.5,1.3c1.5.7,2.3.7,3.7,0,1.1-.5,2.7-1.4,5.5-1.4s3.2.2,4.3.3c1.6.2,4.8.2,6.4.1,1,0,2-.1,4-.1s2.6,0,3.5,0c1,0,1.9,0,3.8,0s3.2.2,4.2.3c.8.1,1.5.2,3.1.2s3.1.1,4.2.2c.8,0,1.6.2,3.2.2s2.9,0,3.8,0c1.7,0,5.2,0,6.9,0,1,0,2-.2,4-.2s3.1.1,4.2.2c.8,0,1.6.2,3.2.2s4.1,1.8,4.1,4-1.8,4-4.1,4-3.1-.1-4.2-.2c-1.7-.2-4.9-.2-6.6,0-1,0-2,.2-4,.2s-2.9,0-3.8,0c-.9,0-1.8,0-3.6,0s-3.1-.1-4.2-.2c-.8,0-1.6-.2-3.2-.2s-3.2-.2-4.3-.3c-1.7-.2-4.9-.2-6.6-.1-1.8,0-5.4,0-7.2.2-1,0-2,.1-4,.1s-3.2-.2-4.3-.3c-1.2-.2-2.9-.8-4.9.2-1.1.5-2.7,1.4-5.5,1.4s-4.4-.8-5.5-1.3c-1.8-.9-3-.5-4.3-.1-1.1.3-2.4.8-4.9.8s-3.3-.2-4.3-.4c-.7-.1-1.5-.3-3-.3-2.2,0-3.3-.2-4.4-.4-1.5-.3-4.4-.3-5.8,0-1.1.2-2.2.4-4.3.4s-2.9,0-3.9,0c-1.6,0-4.9-.1-6.5.1-1.1.2-2.2.3-4.3.3s-2.3.1-3.1.2c-1,.1-2.1.3-4.2.3s-2.5,0-3.3.1c-2,.1-5.9.1-7.9,0-.8,0-1.7-.1-3.3-.1h-7.3c-2.7,0-4.2-.6-5.3-1.1-1.3-.6-2-.9-3.6,0-1.1.6-2.8,1.6-5.7,1.6s-4.2-.7-5.3-1.1c-1.8-.8-3.4-.5-4.8-.1-1,.2-2.3.5-4.6.5s-2.2.1-3,.2c-1.1.2-2.2.4-4.3.4s-4.1-.6-5.1-1c-1.6-.6-3.2-.5-4.7,0-1.1.3-2.4.7-4.8.7s-2.3.1-3,.2c-1.1.2-2.1.3-4.3.3s-4.6-.9-5.7-1.6c-1.6-.9-2.2-.7-3.6,0-1.1.5-2.7,1.3-5.4,1.3s-4.4-.8-5.5-1.3c-2-1-3.7-.4-5-.3-1,.1-2.1.3-4.2.3s-3,0-4-.2c-1.6-.1-4.9-.1-6.5,0-1,.1-2.1.2-4.1.2s-2.9,0-3.8,0c-1.7,0-5.2,0-6.9,0-1.5,0-4.1-.2-6.1.5-1,.4-2.4.8-4.9.8s-3.5-.3-4.5-.5c-.8-.2-1.4-.3-2.8-.3-2.4,0-3.7-.4-4.7-.6-1.5-.4-3.5-.4-5.1,0-1.1.3-2.4.7-4.8.7s-1.8.1-2.7.3c-1,.3-2.3.6-4.7.6s-2.8,0-3.8,0c-.9,0-1.8,0-3.5,0s-3.1-.1-4.2-.3c-.8-.1-1.6-.2-3.1-.2h-7.3c-2.2,0-3.5-.4-4.5-.6-1.6-.3-3.7-.4-5.3,0-1.1.3-2.4.7-4.8.7s-3.1-.1-4.2-.3c-.8-.1-1.5-.2-3.1-.2s-3.1-.1-4.1-.2c-1.5-.2-4.5-.2-6,0-1.1.2-2.2.4-4.4.4s-2.9,0-3.8,0c-1.7,0-5.2,0-6.9,0-.9,0-1.9,0-3.8,0s-3.7-.4-4.8-.7c-1.8-.5-4.2-.3-5.6-.2-1.6.2-4.2-.1-6.4.7-1.1.4-2.5,1-5.1,1s-3-.1-4.1-.2c-.8,0-1.6-.2-3.2-.2s-3.2-.1-4.2-.3c-.8-.1-1.5-.2-3.1-.2s-2.9,0-3.9-.1c-1.5,0-4-.3-5.8.3-1,.3-2.4.8-4.9.8s-3.1-.1-4.1-.2c-.8,0-1.6-.2-3.2-.2s-2.9,0-3.9-.1c-.8,0-1.7-.1-3.4-.1-2.4,0-3.7-.4-4.8-.7-1.8-.5-4.2-.3-5.6-.2-1,.1-2.1.2-4.1.2s-3-.1-4.1-.2c-1.6-.2-4.8-.2-6.3,0-1,.1-2.1.2-4.1.2h-7.2s-7.3,0-7.3,0c-2.1,0-3.1-.1-4.2-.3-.8-.1-1.6-.2-3.1-.2h-7.3c-1.2,0-1.6.2-2.4.5-1,.3-2.4.8-4.9.8s-4.1-.6-5.2-1.1c-2-.8-4-.4-5.4-.3-1,0-2,.2-4,.2h-7.3c-1,0-1.4.2-2.1.5-1.1.4-2.5,1-5.2,1s-2.8,0-3.8,0c-.9,0-1.8,0-3.5,0s-3,0-4-.2c-1.6-.1-4.7-.1-6.3,0-1.1.2-2.1.3-4.2.3s-3.5-.3-4.5-.5c-1.7-.4-4.3-.3-5.7,0-1.1.2-2.2.4-4.3.4s-2.9,0-3.9-.1c-.8,0-1.7-.1-3.4-.1s-3.2-.1-4.2-.3c-.8-.1-1.5-.2-3.1-.2s-3-.1-4.1-.2c-.8,0-1.6-.2-3.2-.2s-3.3-.2-4.3-.4c-1.2-.2-3.2-.6-5,.2-1.1.5-2.6,1.1-5.2,1.1s-3.9-.5-4.9-.8c-2.1-.7-4.9-.5-6.5-.6-1.1-.1-2.4-1-4.7.3-1.1.6-2.8,1.6-5.7,1.6s-4.4-.8-5.5-1.4c-1.9-1-3.1-.5-4.4-.1-1,.3-2.3.6-4.6.6s-2.3.1-3.1.2c-1.1.2-2.1.3-4.2.3s-2.8,0-3.8,0c-.9,0-1.8,0-3.5,0-2.6,0-4.1-.6-5.2-1-1.4-.6-2.4-.7-4,0-1.1.5-2.7,1.3-5.4,1.3s-4.2-.7-5.3-1.1c-2.2-1-4.4-.5-5.9-.6-1.5-.1-4.1-.2-6,.2-1,.3-2.3.6-4.7.6s-3.3-.2-4.4-.4c-1.2-.2-2.9-.7-4.8.2-1,.5-2.6,1.3-5.4,1.3h0Z"/>
    <path class="st2" d="M599,231.8c-2.7,0-4.2-.7-5.3-1.2-2.4-1.1-4.6-.5-6.1-.7-1.3-.2-3.3-.5-5.2.2-1.1.4-2.5,1-5.2,1s-2.9,0-3.9-.1c-.8,0-1.7,0-3.4,0s-3,0-4-.2c-.8,0-1.7-.1-3.3-.1s-3.2-.1-4.2-.3c-1.6-.2-4.7-.2-6.3,0-1.6.2-4.4,0-6.5.6-1.1.3-2.4.7-4.8.7s-3.8-.4-4.9-.8c-1.5-.5-3.2-.5-4.8,0-1,.4-2.5.9-5,.9s-3.9-.5-4.9-.8c-.8-.3-1.2-.4-2.3-.4-2.3,0-3.5-.3-4.5-.5-1.3-.3-2.9-.7-4.7.1-1.1.5-2.6,1.2-5.3,1.2s-4.2-.6-5.2-1.1c-1.8-.8-3.4-.5-4.7-.1-1,.2-2.3.5-4.6.5s-2.5,0-3.3.1c-1,0-2,.1-4,.1s-3.8-.4-4.8-.7c-1.8-.5-4.2-.4-5.6-.2-1,.1-2.1.3-4.1.3s-3.2-.2-4.3-.4c-1.1-.2-2.6-.9-4.7.2-1.1.6-2.7,1.4-5.5,1.4s-4.5-.9-5.5-1.5c-1.9-1-3.1-.5-4.3-.2-1,.3-2.3.6-4.6.6h-7.3c-1.9,0-2.8,0-3.8-.1-1.5,0-4.3-.2-6.1.3-1,.2-2.3.6-4.6.6h-7.3c-2.1,0-3.2,0-4.2-.2-1.6-.3-4.8-.2-6.4-.1-1.7.1-4.7,0-6.7.4-1,.2-2.2.5-4.5.5s-4.3-.8-5.4-1.3c-2.3-1.1-4.2-.5-5.7-.5-1.6,0-4.9,0-6.6.1-1,.1-2.1.3-4.2.3s-2,.1-2.8.3c-1,.2-2.2.5-4.5.5s-3.7-.4-4.8-.7c-1.4-.4-2.8-.7-4.5,0-1.1.5-2.6,1.2-5.3,1.2s-4.4-.8-5.4-1.3c-.7-.4-1-.5-1.9-.5h-7.3c-.9,0-1.2,0-2,.4-1.1.5-2.6,1.2-5.3,1.2s-3.7-.4-4.7-.6c-1.7-.5-4.1-.3-5.5,0-1.1.2-2.2.4-4.3.4s-3.2-.2-4.2-.3c-1.6-.2-4.8-.2-6.4-.1-1.7,0-4.7,0-6.7.4-1,.2-2.2.5-4.5.5h-7.3c-2.1,0-3.1,0-4.2-.2-.8-.1-1.5-.2-3.1-.2-2.6,0-4.1-.6-5.2-1-1.4-.6-2.5-.7-4,0-1,.5-2.6,1.2-5.4,1.2s-3,0-4-.2c-1.6-.1-4.8-.2-6.4,0-1,.1-2,.2-4.1.2s-4-.5-5-.9c-.8-.3-1.2-.4-2.2-.4h-7.2c-1,0-1.4.2-2.2.5-1.1.4-2.5,1-5.1,1s-4.1-.6-5.2-1.1c-.7-.3-1-.5-2-.5h-7.2c-1.7,0-2.6,0-3.4.1-1,0-1.9,0-3.8,0h-7.2c-1.2,0-1.7.2-2.5.4-1.1.3-2.4.7-4.8.7s-4.1-.6-5.2-1.1c-1.7-.7-3.1-.5-4.5,0-1.1.3-2.4.7-4.8.7h-7.2c-1.9,0-2.9,0-3.8,0-.8,0-1.7,0-3.4,0s-3.2-.2-4.3-.4c-.7-.1-1.5-.2-3-.2h-7.2c-.9,0-1.2,0-2,.4-1.1.5-2.6,1.2-5.3,1.2s-3.6-.3-4.7-.6c-.8-.2-1.3-.4-2.6-.4h-7.2c-2,0-2.9,0-3.9,0-1.5,0-4.3-.2-6.1.2-1,.2-2.2.5-4.5.5s-4.3-.8-5.4-1.3c-1.5-.8-2.5-.6-3.9,0-1.1.5-2.6,1.1-5.2,1.1s-3.2-.2-4.3-.4c-.7-.1-1.5-.3-2.9-.3-2.1,0-3.2-.2-4.3-.3-1.2-.2-2.9-.7-4.9.2-1.1.5-2.7,1.3-5.4,1.3s-4.6-1-5.7-1.6c-.7-.4-.9-.5-1.6-.5-2.2,0-4-1.8-4-4s1.8-4,4-4,4.6,1,5.7,1.6c1.6,1,2.1.7,3.4,0,1.1-.5,2.7-1.3,5.4-1.3s3.2.2,4.3.3c.8.1,1.5.2,3,.2,2.2,0,3.2.2,4.3.4,1.2.2,3.1.6,5-.2,1.1-.5,2.6-1.1,5.2-1.1s4.3.8,5.4,1.3c1.9.9,3.3.5,4.6.2,1-.2,2.2-.5,4.5-.5s2.9,0,3.9.1c.8,0,1.7.1,3.4.1h7.2c2.3,0,3.6.3,4.7.6,1.4.4,2.8.7,4.5-.1,1.1-.5,2.6-1.2,5.3-1.2h7.2c2.1,0,3.2.3,4.3.4.7.1,1.5.2,3,.2s2.9,0,3.8.1c.9,0,1.7,0,3.4,0h7.2c1.2,0,1.7-.2,2.5-.4,1.1-.3,2.4-.7,4.8-.7s4.1.6,5.2,1.1c1.7.7,3.1.5,4.5,0,1.1-.3,2.4-.7,4.8-.7h7.2c1.7,0,2.6,0,3.4-.1,1,0,1.9,0,3.8,0h7.2c2.6,0,4.1.6,5.2,1.1,1.5.7,2.8.6,4.2,0,1.1-.4,2.5-1,5.1-1h7.2c2.5,0,4,.5,5,.8,1.8.6,4.1.4,5.4.2,1-.1,2-.2,4.1-.2s3,0,4,.2c1.3.1,3.1.6,5.1-.3,1-.5,2.6-1.2,5.4-1.2s4.1.6,5.2,1c2.3.9,4.7.5,6.3.7.8.1,1.5.2,3.1.2h7.3c1.4,0,2-.2,2.8-.3,1-.2,2.2-.5,4.5-.5s2.5,0,3.4-.1c1,0,1.9-.1,3.9-.1s3.2.2,4.2.3c1.5.2,4.5.2,6,0,1.1-.2,2.2-.4,4.3-.4s3.7.4,4.7.6c1.3.4,2.8.7,4.5-.1,1.1-.5,2.6-1.2,5.3-1.2h7.3c2.8,0,4.4.8,5.4,1.3,1.5.8,2.5.6,3.8,0,1.1-.5,2.6-1.2,5.3-1.2s3.7.4,4.8.7c1.6.5,3.8.4,5.3,0,1-.2,2.2-.5,4.5-.5s2.3-.1,3.1-.2c1-.1,2.1-.3,4.2-.3s2.8,0,3.8,0c.9,0,1.8,0,3.5,0,2.8,0,4.3.8,5.4,1.3,1.9.9,3.3.5,4.6.2,1-.2,2.3-.5,4.5-.5s2.5,0,3.4-.1c1,0,1.9-.1,3.9-.1s3.2.2,4.2.3c.8.1,1.5.2,3,.2h7.3c1.3,0,1.9-.2,2.7-.4,1-.2,2.3-.6,4.6-.6s2.8,0,3.8,0c.9,0,1.7,0,3.5,0h7.3c1.3,0,1.8,0,2.6-.3,1-.3,2.3-.6,4.6-.6s4.5.9,5.5,1.5c1.5.8,2,.8,3.4,0,1.1-.6,2.7-1.4,5.5-1.4s3.2.2,4.3.4c1.5.3,4.6.2,6.1,0,1-.1,2.1-.3,4.1-.3s3.8.4,4.8.7c1.8.6,4.3.4,5.8.2,1.7-.1,4.7,0,6.6-.5,1-.2,2.3-.5,4.6-.5s4.2.6,5.2,1.1c1.4.6,2.5.7,4,0,1.1-.5,2.6-1.2,5.3-1.2s3.5.3,4.5.5c.8.2,1.4.3,2.7.3,2.5,0,3.9.5,4.9.8,1.5.5,3.1.5,4.7,0,1-.4,2.5-.9,5-.9s3.8.4,4.8.8c1.5.5,3.4.5,4.9,0,1.1-.3,2.4-.7,4.8-.7s2.4,0,3.2-.2c1-.1,2-.2,4.1-.2s3.2.1,4.2.3c.8.1,1.5.2,3.1.2s3,0,4,.2c.8,0,1.7.1,3.3.1s2.9,0,3.9.1c1.4,0,3.5.5,5.5-.4,1.1-.4,2.5-1,5.2-1s3.1.1,4.2.3c.8.1,1.5.2,3.1.2,2.7,0,4.2.7,5.3,1.2,1.5.7,2.4.7,3.8,0,1.1-.5,2.6-1.2,5.4-1.2s3.3.2,4.4.4c1.4.2,3.8.4,5.5,0,1-.3,2.3-.6,4.7-.6s2.9,0,3.9.1c.8,0,1.7.1,3.4.1,2.7,0,4.2.7,5.2,1.1,1.4.6,2.3.7,3.9,0,1.1-.5,2.7-1.3,5.4-1.3s4.1.6,5.2,1c2.1.9,4.4.5,5.9.5,1.6,0,4.9,0,6.5-.2,1.1-.2,2.1-.3,4.2-.3s1.8-.1,2.7-.3c1-.3,2.3-.6,4.6-.6s4.4.8,5.5,1.4c1.4.7,1.8.9,3.4,0,1.1-.6,2.8-1.6,5.7-1.6s3.1.1,4.1.3c.8.1,1.6.2,3.2.2,2.5,0,3.9.5,4.9.8,1.4.5,2.9.6,4.4,0,1.1-.5,2.6-1.1,5.2-1.1s3.3.2,4.4.4c.7.1,1.4.3,2.9.3s3,.1,4,.2c.8,0,1.6.2,3.2.2s3.2.1,4.2.3c.8.1,1.5.2,3.1.2s2.9,0,3.9.1c1.6.1,4.7.1,6.3-.1,1.1-.2,2.2-.4,4.3-.4s3.5.3,4.5.5c1.7.4,4.3.3,5.8,0,1.1-.2,2.1-.3,4.2-.3s3,0,4,.2c1.8.1,5.3.1,7.1.2,1.4,0,3.7.4,5.7-.4,1.1-.4,2.6-1,5.2-1h7.3c1.7,0,2.5-.1,3.3-.2,1,0,2-.2,4-.2s4.1.6,5.2,1.1c1.6.6,3,.5,4.4,0,1-.4,2.4-.8,4.9-.8h7.3c2.1,0,3.1,0,4.2.2.8.1,1.6.2,3.1.2h7.2s7.3,0,7.3,0c1.6,0,2.4,0,3.2-.2,1-.1,2.1-.2,4.1-.2s3,.1,4,.2c1.6.2,4.8.2,6.3,0,1-.1,2.1-.2,4.1-.2s3.7.4,4.8.7c2,.6,4.8.4,6.4.5.8,0,1.7.1,3.4.1s3,.1,4,.2c1.4.1,3.8.3,5.7-.2,1-.3,2.4-.8,4.9-.8s2.9,0,3.9.1c.9,0,1.7.1,3.4.1s3.2.1,4.2.3c.8.1,1.6.2,3.1.2s3.1.1,4.1.2c1.3.1,3.6.5,5.4-.3,1.1-.4,2.5-1,5.1-1s2.3-.1,3.1-.2c1.1-.1,2.1-.3,4.2-.3s3.7.4,4.8.7c1.9.6,4.5.4,6,.3,1.9,0,5.7,0,7.6,0,1.6,0,4.8.1,6.3-.2,1.1-.2,2.2-.4,4.4-.4s3.1.1,4.1.2c.8,0,1.6.2,3.2.2s3.2.1,4.2.3c1.4.2,3.9.3,5.7-.1,1.1-.3,2.4-.7,4.8-.7s3.5.3,4.5.5c.8.2,1.4.3,2.8.3h7.3c2.1,0,3.1.2,4.2.4.8.1,1.6.2,3.1.2s2.8,0,3.8,0c1.5,0,4.3.2,6.2-.3,1-.3,2.3-.6,4.6-.6s1.7-.1,2.5-.4c1.1-.3,2.4-.7,4.8-.7s3.7.4,4.7.6c.8.2,1.3.4,2.6.4,2.2,0,3.5.3,4.5.5,1.5.3,3.5.5,5.2-.1,1-.3,2.4-.8,4.9-.8s2.6,0,3.5,0c1.9,0,5.7,0,7.6,0,1.7,0,5,.1,6.6,0,1-.1,2-.2,4.1-.2s3,0,4,.2c1.6.1,4.8.1,6.4,0,1.1-.1,2.1-.3,4.2-.3s4.4.8,5.5,1.3c1.5.8,2.4.7,3.8,0,1.1-.5,2.7-1.3,5.4-1.3s4.6.9,5.7,1.6c2.2,1.2,3.5.5,4.7.3,1.1-.2,2.2-.3,4.3-.3s1.7-.1,2.5-.4c1.1-.3,2.4-.7,4.8-.7s4.1.6,5.1,1c1.8.7,3.9.4,5.2.2,1.1-.2,2.2-.4,4.3-.4s2-.1,2.8-.3c1-.2,2.3-.5,4.6-.5s4.2.7,5.3,1.1c1.3.6,2,.9,3.7,0,1.1-.6,2.8-1.6,5.7-1.6s4.2.7,5.3,1.2c.7.3,1,.5,2,.5h7.4c2,0,3,0,4,0,1.7.1,5.1.1,6.8,0,1,0,2-.1,4-.1s2.4-.1,3.2-.2c1.1-.1,2.1-.3,4.2-.3s4.1,1.8,4.1,4-1.8,4-4.1,4-2.4.1-3.2.2c-1.1.1-2.1.3-4.2.3s-2.5,0-3.4.1c-2,.1-6,.1-8,0-.8,0-1.7-.1-3.4-.1h-7.4c-2.7,0-4.2-.6-5.3-1.1-1.3-.6-2-.9-3.7,0-1.1.6-2.8,1.6-5.7,1.6s-4.2-.7-5.3-1.1c-1.8-.8-3.4-.5-4.8-.1-1,.2-2.3.5-4.6.5s-2.3.1-3,.2c-1.1.2-2.2.4-4.3.4s-4.1-.6-5.1-1c-1.6-.6-3.2-.5-4.7,0-1.1.3-2.4.7-4.8.7s-2.3.1-3,.2c-1.1.2-2.1.3-4.3.3s-4.6-.9-5.7-1.6c-1.6-.9-2.2-.7-3.6,0-1.1.5-2.7,1.3-5.4,1.3s-4.4-.8-5.5-1.3c-2-1-3.8-.4-5-.3-1.1.1-2.1.3-4.2.3s-3,0-4-.2c-1.6-.1-4.9-.1-6.5,0-1,.1-2,.2-4.1.2s-2.9,0-3.8,0c-1.7-.1-5.2,0-7,0-1.5,0-4.1-.2-6.1.5-1,.4-2.4.8-4.9.8s-3.5-.3-4.5-.5c-.8-.2-1.4-.3-2.8-.3-2.4,0-3.7-.4-4.7-.6-1.6-.4-3.6-.4-5.1,0-1.1.3-2.4.7-4.8.7s-1.8.1-2.7.3c-1,.3-2.3.6-4.7.6s-2.8,0-3.8,0c-.9,0-1.8,0-3.5,0s-3.1-.1-4.2-.3c-.8-.1-1.6-.2-3.1-.2h-7.3c-2.3,0-3.5-.4-4.5-.6-1.6-.3-3.8-.4-5.4,0-1.1.3-2.4.7-4.8.7s-3.1-.1-4.2-.3c-.8-.1-1.6-.2-3.1-.2s-3.1-.1-4.1-.2c-1.5-.2-4.6-.2-6.1,0-1.1.2-2.2.4-4.4.4s-2.9,0-3.8,0c-1.7,0-5.2,0-7,0-.9,0-1.9,0-3.8,0s-3.7-.4-4.8-.7c-1.8-.5-4.2-.4-5.6-.2-1.6.2-4.1-.1-6.4.7-1.1.4-2.5,1-5.1,1s-3.1-.1-4.1-.2c-.8,0-1.6-.2-3.2-.2s-3.2-.1-4.2-.3c-.8-.1-1.6-.2-3.1-.2s-2.9,0-3.9-.1c-1.5,0-4-.3-5.8.3-1,.3-2.4.8-4.9.8s-3-.1-4-.2c-.8,0-1.6-.2-3.2-.2s-2.9,0-3.9-.1c-.8,0-1.7-.1-3.4-.1-2.4,0-3.7-.4-4.8-.7-1.8-.5-4.2-.3-5.6-.2-1,.1-2.1.2-4.1.2s-3-.1-4-.2c-1.6-.2-4.8-.2-6.4,0-1,.1-2.1.2-4.1.2h-7.3s-7.2,0-7.2,0c-2.1,0-3.1-.1-4.2-.3-.8-.1-1.6-.2-3.1-.2h-7.3c-1.2,0-1.6.2-2.3.5-1,.4-2.4.8-4.9.8s-4.1-.6-5.2-1.1c-1.9-.8-4.1-.4-5.4-.3-1,0-2,.2-4,.2h-7.3c-1.1,0-1.4.2-2.2.5-1.1.4-2.6,1-5.2,1s-2.8,0-3.8,0c-.9,0-1.8,0-3.5,0s-3,0-4-.2c-1.6-.1-4.7-.2-6.3,0-1.1.2-2.1.3-4.2.3s-3.5-.3-4.5-.5c-1.7-.4-4.3-.3-5.7,0-1.1.2-2.2.4-4.3.4s-2.9,0-3.9-.1c-.8,0-1.7-.1-3.4-.1s-3.2-.1-4.2-.3c-.8-.1-1.5-.2-3.1-.2s-3-.1-4-.2c-.8,0-1.6-.2-3.2-.2s-3.3-.2-4.4-.4c-1.2-.2-3.2-.6-5,.2-1.1.5-2.6,1.1-5.2,1.1s-3.9-.5-4.9-.8c-.8-.2-1.2-.4-2.4-.4-2.1,0-3.1-.1-4.2-.3-1.1-.1-2.4-1-4.7.3-1.1.6-2.8,1.6-5.7,1.6s-4.4-.8-5.5-1.4c-1.9-1-3.1-.5-4.5-.1-1,.3-2.3.6-4.6.6s-2.3.1-3,.2c-1.1.2-2.1.3-4.2.3s-2.8,0-3.8,0c-.9,0-1.8,0-3.5,0-2.6,0-4.1-.6-5.2-1-1.4-.5-2.4-.7-4,0-1.1.5-2.7,1.3-5.4,1.3s-4.2-.7-5.3-1.1c-2.2-1-4.4-.5-5.9-.6-1.5,0-4.1-.2-6,.2-1,.3-2.3.6-4.7.6s-3.3-.2-4.4-.4c-1.2-.2-2.9-.7-4.8.2-1.1.5-2.7,1.3-5.4,1.3h0Z"/>
    <path class="st2" d="M658.1,372.2c-2.7,0-4.2-.7-5.3-1.2-2.4-1.1-4.6-.5-6.1-.8-1.3-.2-3.4-.5-5.2.2-1.1.4-2.5,1-5.2,1s-2.9,0-3.9-.1c-.9,0-1.7,0-3.4,0s-3,0-4-.2c-.8,0-1.7-.1-3.3-.1s-3.2-.2-4.2-.3c-1.6-.2-4.7-.2-6.3,0-1.6.2-4.5,0-6.5.6-1.1.3-2.4.7-4.8.7s-3.8-.5-4.9-.8c-1.5-.5-3.2-.5-4.7,0-1,.4-2.5.9-5,.9s-3.9-.5-5-.8c-.8-.3-1.2-.4-2.3-.4-2.3,0-3.5-.3-4.5-.5-1.3-.3-2.9-.7-4.7.2-1.1.5-2.6,1.2-5.3,1.2s-4.2-.7-5.3-1.1c-1.8-.8-3.3-.5-4.7-.1-1,.2-2.3.5-4.6.5s-2.5,0-3.3.1c-1,0-2,.2-3.9.2s-3.8-.4-4.8-.7c-1.8-.5-4.2-.3-5.6-.2-1,.1-2.1.3-4.1.3s-3.2-.2-4.3-.4c-1.2-.2-2.6-.8-4.7.2-1.1.6-2.7,1.4-5.5,1.4s-4.5-.9-5.6-1.5c-1.9-1-3.1-.5-4.4-.2-1,.3-2.3.6-4.6.6h-7.3c-1.9,0-2.9,0-3.8-.1-1.5,0-4.3-.2-6.1.3-1,.3-2.3.6-4.6.6h-3.5c-.9,0-1.9,0-3.8,0s-3.2-.2-4.2-.3c-1.6-.2-4.8-.2-6.4-.1-1.7,0-4.7,0-6.7.4-1,.2-2.2.5-4.5.5s-4.3-.8-5.4-1.3c-2.3-1.1-4.2-.5-5.7-.5-1.6,0-4.9,0-6.6.2-1,.2-2.1.3-4.2.3s-2,.1-2.8.3c-1,.2-2.2.5-4.5.5s-3.7-.4-4.8-.7c-1.4-.4-2.8-.7-4.5,0-1.1.5-2.6,1.2-5.3,1.2s-4.4-.8-5.4-1.3c-.7-.4-1-.5-1.8-.5h-7.3c-.9,0-1.2,0-2,.4-1.1.5-2.6,1.2-5.3,1.2s-3.7-.4-4.7-.7c-1.7-.5-4.1-.3-5.5,0-1.1.2-2.2.4-4.3.4s-3.2-.2-4.2-.3c-1.6-.3-4.8-.2-6.4-.1-1.7,0-4.7,0-6.7.4-1,.2-2.2.5-4.5.5h-7.3c-2.1,0-3.2-.1-4.2-.2-.8-.1-1.5-.2-3.1-.2-2.6,0-4.1-.6-5.2-1-1.4-.5-2.5-.7-4,0-1.1.5-2.6,1.3-5.4,1.3s-3,0-4-.2c-1.6-.2-4.8-.2-6.4,0-1,.1-2,.2-4.1.2s-4-.5-5-.9c-.8-.3-1.2-.4-2.3-.4h-7.3c-1.1,0-1.4.2-2.2.5-1.1.4-2.5,1-5.1,1s-4.1-.6-5.2-1.1c-.8-.3-1.1-.4-2-.4h-7.3c-1.7,0-2.6,0-3.5.1-1,0-1.9,0-3.8,0h-7.3c-1.2,0-1.7.2-2.5.4-1.1.3-2.4.7-4.8.7s-4.1-.6-5.2-1.1c-1.7-.7-3.1-.5-4.5,0-1.1.3-2.4.7-4.8.7h-7.3c-1.9,0-2.9,0-3.8,0-.9,0-1.7,0-3.4,0s-3.2-.2-4.3-.4c-.7-.1-1.5-.2-3-.2s-2.8,0-3.7,0h-3.5c-.9,0-1.2,0-2,.4-1.1.5-2.6,1.2-5.3,1.2s-3.6-.3-4.7-.6c-.8-.2-1.3-.3-2.6-.3h-7.2c-2,0-2.9,0-3.9,0-1.5,0-4.3-.2-6.1.2-1,.2-2.2.5-4.5.5s-4.3-.8-5.4-1.3c-1.5-.7-2.5-.6-3.9,0-1.1.5-2.6,1.1-5.2,1.1s-3.2-.2-4.3-.4c-.7-.1-1.5-.2-2.9-.2-2.1,0-3.2-.2-4.2-.3-1.2-.2-2.9-.7-4.8.2-1.1.5-2.6,1.3-5.4,1.3s-4.6-1-5.7-1.6c-1.9-1.2-2.6-.5-3.9-.1-1,.3-2.4.8-4.9.8s-3.6-.3-4.6-.6c-1.8-.5-4.4-.3-5.8-.2-1,0-2,.2-4,.2s-3.1-.1-4.1-.3c-1.2-.2-2.6-.9-4.8.3-1.1.6-2.7,1.5-5.6,1.5s-4.6-1-5.7-1.6c-1.9-1.1-2.7-.5-3.9-.1-1,.3-2.5.8-4.9.8s-3.7-.4-4.8-.7c-2-.6-4.7-.4-6.2-.4-1.4,0-3.4-.5-5.5.4-1.1.5-2.6,1.2-5.3,1.2s-3.9-.5-4.9-.8c-2.1-.7-4.8-.4-6.4-.6-1.6-.2-4.9-.2-6.5,0-1,0-2,.2-4,.2s-3,0-4-.2c-1.3-.1-3.4-.5-5.4.3-1.1.5-2.6,1.1-5.2,1.1s-2.8,0-3.8,0c-.9,0-1.7,0-3.5,0s-4-1.8-4-4,1.8-4.1,4-4.1,2.8,0,3.8,0c1.4,0,3.5.5,5.5-.4,1.1-.5,2.6-1.1,5.2-1.1s3,0,4,.2c1.6.1,4.9.1,6.5,0,1,0,2-.2,4-.2s3,.1,4,.2c.8,0,1.6.2,3.2.2,2.5,0,3.9.5,4.9.8,1.4.5,2.7.7,4.4,0,1.1-.5,2.6-1.2,5.3-1.2s2.8,0,3.8,0c.9,0,1.8,0,3.5,0s3.7.4,4.8.7c1.5.5,3.2.5,4.8,0,1-.3,2.5-.8,4.9-.8s4.6,1,5.7,1.6c1.5.9,1.8.8,3.2,0,1.1-.6,2.7-1.5,5.6-1.5s3.1.1,4.1.3c1.6.2,4.8.2,6.4,0,1,0,2-.2,4-.2s3.6.3,4.6.6c1.5.4,3.3.5,4.9,0,1-.3,2.4-.8,4.9-.8s4.6,1,5.7,1.6c1.6,1,2.1.7,3.4,0,1.1-.5,2.6-1.3,5.4-1.3s3.2.2,4.2.3c.8.1,1.5.2,3,.2,2.2,0,3.2.2,4.3.4,1.2.2,3.1.6,5-.2,1.1-.5,2.6-1.1,5.2-1.1s4.3.8,5.4,1.3c1.9.9,3.3.5,4.6.2,1-.2,2.2-.5,4.5-.5s2.9,0,3.9.1c.8,0,1.7.1,3.3.1h7.2c2.3,0,3.6.3,4.7.6,1.3.4,2.8.7,4.5-.1,1.1-.5,2.6-1.2,5.3-1.2s2.8,0,3.7,0h3.5c2.2,0,3.2.2,4.3.4.7.1,1.5.2,3,.2s2.9,0,3.8,0c.9,0,1.7,0,3.4,0h7.3c1.2,0,1.7-.2,2.5-.4,1.1-.3,2.4-.7,4.8-.7s4.1.6,5.2,1.1c1.7.7,3.1.5,4.5,0,1.1-.3,2.4-.7,4.8-.7h7.3c1.7,0,2.6,0,3.5-.1,1,0,1.9,0,3.8,0h7.3c2.7,0,4.1.6,5.2,1.1,1.5.7,2.8.6,4.2,0,1.1-.4,2.5-1,5.1-1h7.3c2.5,0,4,.5,5,.8,1.8.6,4.1.4,5.5.2,1-.1,2-.2,4.1-.2s3,0,4,.2c1.3.1,3.1.6,5.2-.3,1.1-.5,2.6-1.3,5.4-1.3s4.1.6,5.2,1c2.2.9,4.7.5,6.3.7.8.1,1.5.2,3.1.2h7.3c1.4,0,2-.2,2.8-.3,1-.2,2.2-.5,4.5-.5s2.5,0,3.4,0c1,0,1.9-.1,3.9-.1s3.2.2,4.2.3c1.5.2,4.5.2,5.9,0,1.1-.2,2.2-.4,4.3-.4s3.7.4,4.7.7c1.3.4,2.8.7,4.5,0,1.1-.5,2.6-1.2,5.3-1.2h7.3c2.8,0,4.4.8,5.4,1.4,1.5.8,2.4.7,3.8,0,1.1-.5,2.6-1.2,5.3-1.2s3.7.4,4.8.7c1.7.5,3.8.4,5.3,0,1-.2,2.2-.5,4.5-.5s2.3,0,3.1-.2c1-.2,2.1-.3,4.2-.3s2.8,0,3.8,0c.9,0,1.8,0,3.5,0,2.7,0,4.3.8,5.4,1.3,1.9.9,3.3.5,4.6.2,1-.2,2.2-.5,4.5-.5s2.5,0,3.4-.1c1,0,2-.1,3.9-.1s3.2.2,4.2.3c.8.1,1.5.2,3,.2h3.5c1.6,0,4.6,0,6.4-.4,1-.3,2.3-.6,4.6-.6s2.9,0,3.8,0c.9,0,1.7,0,3.5,0h7.3c1.3,0,1.8,0,2.7-.3,1-.3,2.3-.6,4.6-.6s4.5.9,5.6,1.5c1.5.8,2,.8,3.5,0,1.1-.6,2.7-1.4,5.5-1.4s3.2.2,4.3.4c1.5.3,4.6.2,6.1,0,1-.1,2.1-.3,4.1-.3s3.8.4,4.8.7c1.8.5,4.3.4,5.8.3,1.7-.1,4.7,0,6.6-.5,1-.2,2.3-.5,4.6-.5s4.2.7,5.2,1.1c1.5.6,2.5.7,4,0,1.1-.5,2.6-1.2,5.3-1.2s3.5.3,4.5.5c.8.2,1.4.3,2.7.3,2.5,0,3.9.5,4.9.8,1.5.5,3.1.5,4.6,0,1-.4,2.5-.9,5-.9s3.8.5,4.9.8c1.5.5,3.3.5,4.9,0,1.1-.3,2.4-.7,4.8-.7s2.4,0,3.2-.2c1,0,2-.2,4-.2s3.2.2,4.2.3c.8.1,1.5.2,3.1.2s3,0,4,.2c.8,0,1.7.1,3.3.1s2.9,0,3.9.1c1.4,0,3.6.5,5.5-.3,1.1-.4,2.5-1,5.2-1s3.1.1,4.2.3c.8.1,1.5.2,3.1.2,2.7,0,4.2.7,5.3,1.2,1.5.7,2.3.7,3.8,0,1-.5,2.6-1.3,5.4-1.3s3.3.2,4.4.4c1.4.2,3.8.4,5.4,0,1-.3,2.3-.7,4.7-.7s2.9,0,3.9.1c.8,0,1.7,0,3.4,0,2.7,0,4.2.7,5.2,1.1,1.4.6,2.3.7,3.9,0,1.1-.5,2.7-1.3,5.4-1.3s4.1.6,5.2,1c2.1.8,4.4.5,5.9.5,1.7,0,4.9,0,6.6-.2,1.1-.2,2.1-.3,4.2-.3s1.8-.1,2.7-.3c1-.3,2.3-.6,4.6-.6s4.4.8,5.5,1.4c1.4.7,1.8.9,3.4,0,1.1-.7,2.8-1.6,5.7-1.6s3.1.1,4.1.3c.8,0,1.6.2,3.1.2,2.5,0,3.9.5,4.9.8,1.4.5,2.8.6,4.4,0,1.1-.5,2.6-1.1,5.2-1.1s3.2.2,4.3.4c.7.1,1.5.3,2.9.3s3,.1,4.1.2c.8,0,1.6.2,3.2.2s3.2.2,4.2.3c.8.1,1.5.2,3.1.2s2.9,0,3.9.1c1.6,0,4.8.1,6.3-.2,1.1-.2,2.2-.4,4.3-.4s3.5.3,4.5.5c1.7.4,4.3.3,5.8,0,1.1-.2,2.1-.3,4.3-.3s3,0,4,.2c1.8.2,5.3.2,7.1.2,1.4,0,3.7.4,5.7-.4,1.1-.4,2.5-1,5.1-1h7.3c1.7,0,2.5-.1,3.3-.2,1,0,2-.2,4-.2s4.1.6,5.2,1.1c1.6.7,3,.5,4.4,0,1-.3,2.4-.8,4.9-.8h7.3c2.1,0,3.1,0,4.2.2.8.1,1.6.2,3.1.2h7.3c0,0,7.3,0,7.3,0,1.6,0,2.4,0,3.2-.2,1-.1,2.1-.2,4.1-.2s3.1.1,4.1.2c1.6.2,4.8.2,6.4,0,1-.1,2.1-.2,4.1-.2s3.7.4,4.8.7c2,.6,4.8.4,6.4.5.9,0,1.7,0,3.4,0s3,.1,4.1.2c1.4.1,3.9.4,5.7-.2,1-.3,2.4-.8,4.9-.8s2.9,0,3.9.1c.9,0,1.7,0,3.4,0s3.2.2,4.2.3c.8.1,1.6.2,3.1.2s3.1.1,4.1.2c1.3.1,3.6.5,5.4-.3,1.1-.4,2.5-1,5.1-1s2.3,0,3.1-.2c1.1-.1,2.1-.3,4.2-.3s3.7.4,4.8.7c1.9.5,4.5.4,6,.3,1.9,0,5.7,0,7.6,0,1.6,0,4.7.1,6.3-.2,1.1-.2,2.2-.4,4.4-.4s3.1.1,4.1.2c.8,0,1.6.2,3.2.2s3.2.2,4.2.3c1.4.2,3.9.3,5.7-.2,1.1-.3,2.4-.7,4.8-.7s3.5.3,4.5.5c.8.2,1.4.3,2.8.3h7.3c2.1,0,3.1.2,4.2.4.8.1,1.6.2,3.2.2s2.8,0,3.8,0c1.5,0,4.3.2,6.2-.3,1-.3,2.3-.6,4.7-.6s1.8-.2,2.6-.4c1.1-.3,2.4-.7,4.8-.7s3.7.4,4.7.6c.8.2,1.3.4,2.6.4,2.2,0,3.5.3,4.5.5,1.5.3,3.5.5,5.2,0,1-.3,2.4-.8,4.9-.8s2.7,0,3.6,0c1.9,0,5.8,0,7.7,0,1.7,0,5,0,6.7,0,1-.1,2.1-.2,4.1-.2s3,0,4,.2c.8,0,1.7.1,3.4.1s4.1,1.8,4.1,4.1-1.8,4.1-4.1,4.1-3,0-4-.2c-1.7-.2-5-.1-6.6,0-1,.1-2.1.2-4.1.2s-2.9,0-3.9,0c-1.8,0-5.3,0-7,0-1.5,0-4.2-.2-6.2.5-1,.3-2.4.8-4.9.8s-3.5-.3-4.5-.5c-.8-.2-1.4-.3-2.8-.3-2.4,0-3.7-.4-4.7-.6-1.5-.4-3.6-.4-5.2,0-1.1.3-2.4.7-4.8.7s-1.9.1-2.7.3c-1,.3-2.3.6-4.7.6s-2.9,0-3.8,0c-.9,0-1.8,0-3.5,0s-3.2-.1-4.2-.3c-.8-.1-1.6-.2-3.1-.2h-7.3c-2.3,0-3.5-.4-4.5-.6-1.6-.3-3.7-.4-5.3,0-1.1.3-2.4.7-4.8.7s-3.2-.2-4.2-.3c-.8-.1-1.6-.2-3.1-.2s-3.1-.1-4.1-.2c-1.5-.2-4.5-.2-6.1,0-1.1.2-2.2.4-4.4.4s-2.9,0-3.8,0c-1.7,0-5.2,0-6.9,0-.9,0-1.9,0-3.8,0s-3.7-.4-4.8-.7c-1.8-.5-4.2-.4-5.6-.2-1.1.1-2.1.3-4.2.3s-1.4.1-2.2.4c-1.1.4-2.5,1-5.1,1s-3.1-.1-4.1-.2c-.8,0-1.6-.2-3.2-.2s-3.2-.2-4.2-.3c-.8-.1-1.6-.2-3.1-.2s-2.9,0-3.9-.1c-1.5,0-4-.3-5.8.3-1,.3-2.4.8-4.9.8s-3.1-.1-4.1-.2c-.8,0-1.6-.2-3.2-.2s-2.9,0-3.9-.1c-.9,0-1.7,0-3.4,0-2.4,0-3.7-.4-4.8-.7-1.8-.5-4.3-.4-5.7-.2-1,.1-2.1.2-4.1.2s-3.1-.1-4.1-.2c-1.6-.2-4.8-.2-6.4,0-1,.1-2.1.2-4.1.2h-7.3s-7.3,0-7.3,0c-2.1,0-3.1-.1-4.2-.3-.8-.1-1.6-.2-3.1-.2h-7.3c-1.2,0-1.6.2-2.4.5-1,.3-2.4.8-4.9.8s-4.1-.6-5.2-1.1c-1.9-.8-4-.4-5.4-.3-1,0-2,.2-4,.2h-7.3c-1.1,0-1.4.2-2.2.5-1.1.4-2.5,1-5.2,1s-2.8,0-3.8,0c-.9,0-1.8,0-3.5,0s-3,0-4-.2c-1.6-.1-4.7-.2-6.3,0-1.1.2-2.1.3-4.2.3s-3.5-.3-4.5-.5c-1.7-.4-4.3-.3-5.7,0-1.1.2-2.2.4-4.3.4s-2.9,0-3.9-.1c-.8,0-1.7,0-3.4,0s-3.1-.2-4.2-.3c-.8-.1-1.5-.2-3.1-.2s-3-.1-4.1-.2c-.8,0-1.6-.2-3.2-.2s-3.3-.2-4.3-.4c-1.2-.2-3.1-.6-5,.2-1.1.5-2.6,1.1-5.2,1.1s-3.9-.5-4.9-.8c-2.2-.7-4.9-.4-6.5-.7-1.1-.1-2.4-1-4.7.3-1.1.7-2.8,1.6-5.7,1.6s-4.4-.8-5.5-1.4c-1.9-1-3.1-.5-4.4-.2-1,.3-2.3.6-4.6.6s-2.3.1-3.1.2c-1.1.2-2.1.3-4.2.3s-2.8,0-3.8,0c-.9,0-1.8,0-3.5,0-2.6,0-4.1-.6-5.2-1-1.4-.5-2.4-.7-4,0-1.1.5-2.7,1.3-5.4,1.3s-4.2-.7-5.2-1.1c-2.2-1-4.4-.5-5.9-.6-1.5,0-4.1-.2-5.9.2-1,.3-2.3.7-4.7.7s-3.3-.2-4.3-.4c-1.2-.2-2.9-.7-4.8.2-1,.5-2.6,1.3-5.3,1.3h0Z"/>
  </g>
  <g id="Bubbla">
    <path d="M1137.4,241.4C1135.9,74.5,972,0,606,0s-15.7,0-23.7.1c-.5,0-.9,0-1.3,0h-2.3C196.3,3.5,26.4,80.9,27.9,251.1c1.1,131.9,72.6,223.1,416,239-10.8,36.8-38.5,90.9-107.8,151-2.2,1.9-2.7,5-1.3,7.5,1.1,2,3.2,2.9,5.3,3.2,1.2.2,4,.2,5.3-.3,3.7-1.4,92.9-28.8,182-159.1,18,.2,36.3.3,55.6.1.5,0,1,0,1.5,0,.7,0,1.4,0,2.1,0,222.8-1.9,372-26.5,456-75.1,84.5-48.8,95.3-116.3,94.8-175.9h0ZM1032.9,406.8c-81.9,47.4-228.6,71.4-448.4,73.4-20.9.2-40.9,0-60.3-.2,0,0-.2,0-.2,0-1.1,0-2.2,0-3.3,0-1.9,0-4,1-5.1,2.7-49.7,73.4-100.1,114-134.4,135.5,51.2-53.2,71.9-100.3,80-132.5.5-1.8,0-3.7-1-5.1-1.1-1.5-2.8-2.4-4.6-2.4C77.1,462.1,44.5,352.5,43.6,250.9c-1-108.8,59.3-234.2,537.1-238.7,7.3,0,14.5,0,21.6,0,458.5,0,518.4,122.6,519.3,229.4.5,56-9.7,119.5-88.7,165.2h0Z"/>
  </g>
  <g id="Text">
    <g>
      <path class="st0" d="M192.3,187.4c.6,5.7.2,11.5.2,17.2s.1,9.2,1.3,13.7c.1.5.2,1.1.2,1.6,0,3.3-3.9,7.2-7.2,7.2s-6.2-2.8-6.6-5.7c-1.1-7.9-.8-16.3-1.1-24.3-.6-18-.8-36-1.6-53.9-.1-2.4-.4-5-.4-7.4,0-12.3,12.2-11.5,21-11.5s35-.1,37.2,4.5c.5,1.1.8,2.2.8,3.4,0,6.2-13.5,6.7-17.9,7.2-6.9.7-11.3,1.6-18.5,1.6s-8.8,2.4-8.8,9.8.5,11.7,1.6,17.4h1.8c8.9,0,17.5-2.2,26.2-2.2s17-.2,17,6c0,11-36.9,8.7-45.7,15.5h0Z"/>
      <path class="st0" d="M343.8,200.1c-10.8,18.8-29.6,30.5-51.5,30.5s-15.1-1.3-21.9-3.9c-19.6-7.4-24.5-26.6-24.5-45.6,0-34.1,27.2-55,59.8-55s46.8,16.2,46.8,44.8-3.5,20.3-8.6,29.2h0ZM336.3,161.3c-5.2-14.2-21.9-19.2-35.6-19.2-19.9,0-38.9,12.9-40.8,33.8-.2,2.1-.2,4.2-.2,6.3,0,13.2,4.7,21.9,16.6,27.9,5.8,3,12.5,4.7,19.1,4.7,21.6,0,42.5-20.4,42.5-42.1s-.4-8.1-1.6-11.4h0Z"/>
      <path class="st0" d="M451.4,225.4c-3.3,0-7.5-2.8-10.6-4.1-18.8-8.1-38.5-18.5-59.3-20-2.5,3.8-1.9,7.4-1.9,11.7s-3.2,12.9-9.2,12.9-6.4-3.5-6.4-7,.7-7.7,1.2-11.4c1-8.3,1.8-16.5,1.8-24.9,0-15.7-1.2-31.4-1.2-47s21.6-9,27.6-9c13.8,0,27.8,1.8,41.5,3.8,8,1.1,14.3,3.2,16.4,11.9.4,1.3.4,2.8.4,4.2,0,19.3-23.2,37.8-39.5,44.6,10,6,44.5,15.8,44.5,29.3s-2.4,5.2-5.2,5.2h0ZM396.7,142.7c-5.3,0-10.7.2-16,.9-1.5,4-2.1,8.1-2.1,12.4,0,8.1,2.1,16.2,2.1,24.3,2.1.7,4.4,1,6.6,1,10.8,0,20.9-6,29.5-11.9,5.1-3.5,18.2-11.9,18.2-18.6s-32.4-8-38.3-8h0Z"/>
      <path class="st0" d="M540.5,223.5c-1,2.4-2.7,4.1-5.5,4.1-5.3,0-7.4-3.3-7.4-7.8-13.1,1.1-30,10.7-41.5,10.7-20.3,0-20.5-25.3-20.5-39.9s.5-24.4.5-36.7-.6-10.6-.6-15.9,2.7-10.2,8.4-10.2,7.8,2.2,7.8,6.9-1.1,9.6-1.6,14.3c-1.2,10.8-1.7,21.6-1.7,32.4s.2,23,3.3,27.6c1.7,2.4,3.9,2.4,6.6,2.4,7.2,0,33.7-4.7,38.4-9.2,2.4-9.7,2.8-19.6,2.8-29.5s-.2-22.7-1.3-34.1c-.2-2.2-.5-4.5-.5-6.7,0-3.9,2.1-7,6.2-7,11.1,0,8.4,8.1,8.4,15.9,0,17.2.8,34.4.8,51.6s0,24.8-2.4,31h0Z"/>
      <path class="st0" d="M667.1,201.3c0,5.2,0,20.4-1.3,24.9-.6,2.1-2.1,3.6-4.4,3.6-7.3,0-10.2-4.9-10.2-11.7,0-11.7.6-23.3.6-35s-.4-13.5-2.4-20.4c-12.2,14.7-19.9,31.5-27.6,48.7-2.5,5.7-5.5,18-13,18s-9.2-13.4-12.4-19.1c-.6-1.1-1.3-2-1.9-3l-19.4-33.9c-2.3,5.6-2.7,11.8-2.7,17.7s.2,10.8.2,16.3.7,16-7,16-7.2-1.8-7.2-6.7c0-8.4,1.7-16.8,1.7-25.1,0-15.7-2.3-31.3-2.3-47s.6-14.7,9.3-14.7,2.8.6,4,1.3c4.9,3.2,5.8,13.6,8.7,18.7,2.8,5,6,9.7,8.6,14.8,6,11,11.3,22.5,19.3,32.3,18.2-18.5,25.6-44.6,40.8-65.2,2.2-2.9,4.5-7,8.6-7s9,4,9.7,7.6c1,4.5-.6,11.7-.5,16.3.4,10.8.6,21.6.6,32.4v20h0Z"/>
      <path class="st0" d="M776.4,183.2c-15.8,1.3-26.1-.6-40.7,8.1-.1,1.3-.2,2.8-.2,4.1,0,7.7,1.9,15.1,1.9,22.7s-.8,13.9-8.3,13.9-6.2-4.6-6.2-8.3c0-7.3-.2-14.6-.4-21.9-.1-14.2-.1-28.5-.5-42.8-.2-7.4-1-14.9-1-22.4s1-3.5,1.4-4.5c2.9-5.8,8.4-6.9,14.3-6.9,10.2,0,20.3.7,30.5.7s12.2.2,12.2,7-5.8,5.2-8.6,5.8c-9.8,2.3-23.6-.2-32.2,4.7-3.3,8.4-1.9,18.5-3,27.3,12.5-1,24.8-2.4,37.3-2.4s13.1.2,13.1,7-5.5,7.2-9.7,7.5h0Z"/>
      <path class="st0" d="M890.2,202.6c-10.8,17-29.6,27.5-51.5,27.5s-15.1-1.1-21.9-3.4c-19.6-6.7-24.5-23.9-24.5-41.1,0-30.7,27.2-49.6,59.8-49.6s46.8,14.6,46.8,40.3-3.5,18.3-8.6,26.2h0ZM882.7,167.6c-5.2-12.8-21.9-17.2-35.6-17.2-19.9,0-38.9,11.7-40.8,30.4-.2,1.9-.2,3.9-.2,5.7,0,11.9,4.7,19.7,16.6,25.1,5.8,2.7,12.5,4.2,19.1,4.2,21.6,0,42.5-18.3,42.5-37.9s-.4-7.3-1.6-10.3h0ZM833.3,130.6c-5.7,0-10.8-1.3-10.8-8s6-14.5,12.3-14.5,8.5,5.6,8.5,9.8-3.9,12.6-9.9,12.6h0ZM861.9,130.4c-4.5,0-8.2-4.1-8.2-8.5s5.5-9.2,9.4-12.6c1.1-1,2.3-1.7,3.8-1.7,4.2,0,7.5,4.9,7.5,8.8,0,6.1-6.1,14.1-12.5,14.1h0Z"/>
      <path class="st0" d="M977.8,174.7c-8.3,5.2-17.5,9-25.5,14.7,9.3,5.6,38.6,16.6,38.6,29s-.6,7-3.5,7-.6,0-.8-.1c-12-3-25.2-16-40.2-20.6-5.2-1.6-10.6-3.2-16-3.2s-2.7,0-4,.1c-.8,2.4-1.2,5-1.2,7.5s.7,6.9.7,10.5-2.4,9.2-7.9,9.2-7.4-4.1-7.4-8.4.1-.9.1-1.3c.5-4.4.6-8.7.6-13.1,0-10-.1-20-.1-30s-1-15.1-1-22.6,1.2-9.6,1.2-14.5-.1-2.8-.1-4.2c0-2.3.5-3.4,2.4-4.7,4.7-3.3,16-3.9,21.7-3.9,14.9,0,60.1,2.7,60.1,24s-9.8,19.6-17.7,24.5h0ZM950.4,142.7c-7.5,0-14.9.7-22.4,1.8-2.9,5.2-3.4,16.4-3.4,22.5s.1,9.4,1.3,13.9c16.8-3.4,45.8-12.3,52.8-29.5-6.3-7.7-19.3-8.6-28.4-8.6h0Z"/>
    </g>
    <g>
      <path d="M245.8,375.3c-11.9,0-27.2-2.9-35-12.8-1.6-2-3-4.2-3-6.9,0-5.6,4.9-10.5,10.5-10.5s14.8,10.1,26.6,10.1,26.1-3,26.1-11.9-17.6-7.4-22-8c-5.5-.8-11.1-1.5-16.5-2.1-12.6-1.5-33.8-4-33.8-20.9s13.7-34.7,27.8-40.8c6.4-2.8,13.6-3.9,20.5-3.9,15,0,35,6.2,40.3,21.8.5,1.2.6,2.5.6,3.9,0,6-4.2,10.8-10.3,10.8-9.6,0-14.2-16.9-29.8-16.9s-22.3,5.8-27.6,14.3c-1.1,1.8-2.2,3.9-2.2,6.1s14.8,4,17.7,4.5c18.3,2.7,54.1,5.1,54.1,30.6s-26,32.5-44.1,32.5h0Z"/>
      <path d="M358.2,368.1c-10.5,2.5-30.7,8.4-40.6,8.4s-4.6-.2-6.7-1c-4.6-1.7-6.9-7.3-7.2-11.9-.7-17.2-.8-34.6-.8-51.9s-.2-19.4.4-30.9c.6-11.5,14.3-10.3,22.6-10.3s9.7-.7,14.6-.7c7.4,0,21.4,1,21.4,11.2s-13.6,10.6-20.2,10.6-8.4-.7-12.6-.7-5,.1-7.2,1.3c-.1,2.2-.1,4.4-.1,6.6,0,6,.2,8.4.8,14.3h1c6.2,0,12.4-.7,18.6-.7s19.7.7,19.7,8.5-7.9,9.8-12.5,10.8c-8.5,1.8-21.1-.5-28.2,5.5l-.2,15.7c2.3.8,4.9,1.2,7.3,1.2,10.1,0,19.7-4.2,29.8-4.2s12,1.5,12,6.7-7.3,10.6-11.8,11.7h0Z"/>
      <path d="M471.8,373.7c-2.2,0-4.5-.8-6.4-1.8-11.2-5.2-22.4-10.5-33.9-14.9-9.1-3.5-18.5-6.3-28.2-7.3-1.3,2.8-.8,6.1-.8,9.1,0,6.6-4.1,15.3-11.7,15.3s-8.9-4.6-8.9-9.5.7-7.8,1.2-11.7c1-8.1,1.8-16.4,1.8-24.7,0-15.7-1.2-31.3-1.2-47s23.2-11.4,30-11.4c14.1,0,28.1,1.7,41.9,3.8,8.9,1.3,16.2,4,18.3,13.7.4,1.6.5,3.3.5,4.9,0,19.3-20.5,36.7-36.3,44.7,10.9,5,41.3,15.1,41.3,29.2s-3.5,7.7-7.7,7.7h0ZM425.4,290.8c-7.5,0-15.1.1-22.5.9-1,3.3-1.5,6.7-1.5,10.1,0,7.5,1.8,15,2.1,22.5,1.3.2,2.7.4,4.1.4,10.3,0,19.9-5.7,28.2-11.4,4.1-2.9,17.1-11.4,17.1-16.6s-23.6-5.7-27.6-5.7h0Z"/>
      <path d="M502.5,376.5c-5.8,0-9.7-7.7-9.7-12.8,0-12.6-.1-25.3-.1-37.9s.4-26.7.4-40.1,1-14,8.7-14,10.7,4.2,10.7,11.8-.7,9.8-.7,14.7c0,20.2,1.5,40.5,1.5,60.6s.7,4.9.7,7.4c0,6.6-5.3,10.2-11.4,10.2h0Z"/>
      <path d="M552.7,377.2c-2.7.6-5.5,1.5-8.3,1.5-7,0-12-2.8-12.8-10.2-.7-7.8-.4-15.8-.4-23.6v-18.8c0-13.1,0-26.4-.7-39.5-.1-1.7-.2-3.5-.2-5.2,0-15.3,25.4-12.6,35.2-12.6s9.8-.4,14.8-.4,17.6.4,17.6,9.2-9,11.2-15.9,11.2-14-1.1-21-1.1-7.4.4-10.9,1.6c-.7,5.5-1.2,10.9-1.2,16.5s.1,8.5,1.5,12.5c9-1.3,18.1-1.6,27.2-2.3,1.5-.1,2.9-.2,4.4-.2,6.7,0,14.3,1.7,14.3,10s-3.5,7.3-7.7,8.5c-3.3,1-6.7,1.1-10,1.5-9.6,1-19.1,2.3-28.4,4.6v1.8c-.5,4.6.4,9.2,1,13.8.8.1,1.8.2,2.7.2,4.5,0,9.1-.7,13.6-1.1,6.7-.5,13.2-2.4,20-2.4s13,3,13,9.3c0,11.1-39.6,13.2-47.9,15.2h0Z"/>
      <path d="M648.7,330.3c-5.2,1.1-12.8,1.5-17.2,4.1.4,5.5.1,11,.1,16.5s.1,8.4,1.2,12.5c.2.7.4,1.5.4,2.3,0,4.6-5,9.6-9.6,9.6s-8.6-4-9-8c-2.2-25.9-1.7-52.2-2.7-78.2-.1-2.5-.4-5-.4-7.5,0-13.2,11.8-14,22-14s37.7-.5,40.8,6c.7,1.3,1.1,2.9,1.1,4.5,0,4.7-4.7,6.8-8.6,7.8-9.4,2.4-21.3,3.3-30.9,3.3s-5.6.7-5.6,5.2.4,11.4,1.2,17.1c8.7,0,17.4-2.3,26.1-2.3s4,.2,6.1.5c5.7.7,13.1.1,13.1,8s-20.6,10.9-28.2,12.6h0Z"/>
      <path d="M787.4,347.2c-11.3,19.6-30.8,31.7-53.6,31.7-33.9,0-48.8-19.6-48.8-51.9s28.3-57.5,62.2-57.5,49.2,17.4,49.2,47.3-3.6,21.1-9,30.4ZM775.5,308c-4.6-13.1-20.8-17.6-33.3-17.6-18.8,0-36.4,12-38.4,31.6-.2,2.1-.2,4-.2,6.1,0,12.3,4.2,20,15.3,25.8,5.6,2.8,11.8,4.5,18,4.5,20.3,0,40.1-19.3,40.1-39.7s-.4-7.3-1.4-10.6h0Z"/>
      <path d="M870.8,364.3c-10.7,9.6-34.9,14-49,14s-12.2-.8-13.5-9.2c-1-6.1-.8-12.5-.8-18.7,0-10,.1-66.1,2.2-72,1.2-3.5,4.5-5.2,8-5.2,5.1,0,9.8,3,9.8,8.6,0,20.2-.5,40.5-.5,60.6s0,8.4.1,12.6c1,.4,2.1.6,3.2.6,7.3,0,13.7-.8,20.8-2.8,5.1-1.3,9.1-2.8,14.4-2.8s8.9,4,8.9,8.3-2.2,4.7-3.6,6.1h0Z"/>
      <path d="M971.5,379.2c-12,0-24.4-15.3-32.8-22.8-6.7-6.1-26.8-19.8-35.2-22.1-.5,2.1-.6,4.2-.6,6.3,0,6.4,1.6,12.9,1.6,19.3s-1,13.6-8.4,13.6-11.9-6.4-11.9-12.9.2-1.6.2-2.3l1-78.2c0-4.9,6.8-7.3,10.8-7.3,6.9,0,9,4.6,9,10.7s-1.9,12.9-2.1,19.3c9.6-3.3,17.9-9.5,25.9-15.7,6.4-5,24.7-19.2,32.4-19.2s10.2,4.6,10.2,9.1c-.1,6.3-3.4,9.8-8.4,13.1-3.9,2.5-8.1,4.4-12.3,6.6-10.2,5.4-20.2,13.5-28.6,21.4,3.6,3.9,7.7,7.4,11.8,10.7,9.6,7.8,45.2,31.5,45.2,43s-3.5,7.4-7.9,7.4h0Z"/>
    </g>
  </g>
</svg>