<?xml version="1.0" encoding="UTF-8"?>
<svg xmlns="http://www.w3.org/2000/svg" viewBox="0 0 1920 1080">
  <defs>
    <style>
      .cls-1 {
        fill: #1a171b;
      }

      .cls-2 {
        fill: #fff;
      }

      .cls-3 {
        fill: #5ec4ec;
      }
    </style>
  </defs>
  <g id="Bubbla_vit" data-name="Bubbla vit">
    <path class="cls-2" d="M1388.79,620.94c-81.94,47.38-228.63,71.39-448.38,73.43-20.93.16-40.88.05-60.27-.18-.09,0-.15.05-.24.06-1.1-.02-2.25-.02-3.34-.03-1.93-.05-3.96.98-5.11,2.67-49.68,73.42-100.06,114.04-134.38,135.48,51.18-53.23,71.87-100.28,79.95-132.45.45-1.77.07-3.65-1.03-5.11-1.09-1.47-2.78-2.36-4.61-2.44-378.39-16.05-411.02-125.72-411.91-227.25-.96-108.8,59.31-234.2,537.13-238.66,7.3-.06,14.51-.09,21.62-.09,458.52,0,518.38,122.57,519.31,229.35.48,56.05-9.67,119.52-88.74,165.23Z"/>
  </g>
  <g id="Linjer">
    <path class="cls-3" d="M794.03,354.23c-2.64,0-4.12-.62-5.21-1.08-2.23-.93-4.64-.51-6.17-.7-1.33-.16-3.53-.45-5.37.23-1.05.39-2.5.92-5.04.92-1.92,0-2.87-.05-3.83-.09-.86-.04-1.72-.09-3.43-.09-1.97,0-2.95-.07-3.94-.15-.83-.06-1.66-.13-3.32-.13-2.08,0-3.12-.14-4.16-.27-1.6-.21-4.78-.2-6.37-.06-1.62.15-4.53,0-6.54.54-1.04.29-2.35.65-4.72.65s-3.69-.38-4.75-.67c-1.49-.44-3.36-.46-4.92.02-1.02.33-2.42.77-4.87.77s-3.76-.41-4.83-.74c-.77-.24-1.23-.38-2.44-.38-2.24,0-3.47-.26-4.46-.46-1.41-.3-3.14-.58-4.9.15-1.08.45-2.57,1.07-5.19,1.07s-4.06-.58-5.12-1c-1.76-.69-3.5-.44-4.93-.13-1,.21-2.25.48-4.5.48-1.68,0-2.52.06-3.36.12-.98.06-1.96.13-3.93.13-2.38,0-3.69-.37-4.74-.66-1.74-.49-4.3-.34-5.73-.18-1.02.12-2.05.23-4.1.23s-3.19-.16-4.25-.33c-1.19-.18-2.91-.72-4.9.24-1.05.51-2.65,1.28-5.4,1.28s-4.36-.78-5.42-1.3c-1.85-.91-3.28-.46-4.58-.16-1.01.23-2.27.52-4.55.52l-7.26-.04c-1.89,0-2.84-.03-3.79-.07-1.56-.05-4.4-.16-6.21.24-1.01.23-2.26.51-4.53.51l-7.26.08c-2.09,0-3.14-.14-4.18-.29-1.62-.23-4.85-.22-6.45-.11-1.67.09-4.73,0-6.68.41-.98.2-2.22.45-4.44.45-2.67,0-4.17-.66-5.26-1.15-2.16-.95-4.32-.47-5.74-.51-1.64-.05-4.95-.07-6.61.14-1.03.13-2.07.26-4.13.26-1.44,0-2.15.14-2.87.27-1.09.21-2.19.41-4.38.41-2.34,0-3.63-.34-4.66-.61-1.4-.37-3-.59-4.67.09-1.08.44-2.55,1.04-5.16,1.04s-4.18-.67-5.28-1.16c-.72-.33-1.02-.46-1.96-.46l-7.25-.04c-1.01,0-1.34.14-2.08.44-1.07.45-2.55,1.05-5.16,1.05-2.31,0-3.59-.32-4.61-.58-1.7-.43-4.2-.32-5.6-.09-1.06.17-2.13.35-4.27.35s-3.14-.14-4.18-.29c-1.62-.23-4.86-.2-6.46-.12-.96.05-1.92.11-3.85.11-2.24,0-4.05-1.82-4.05-4.05s1.82-4.05,4.05-4.05c1.7,0,2.55-.05,3.4-.09.96-.05,1.92-.11,3.85-.11,2.09,0,3.13.14,4.17.29,1.49.2,4.52.2,6.04-.03,1.06-.17,2.13-.35,4.27-.35,2.32,0,3.59.32,4.62.58,1.41.35,3.01.58,4.7-.1,1.07-.45,2.55-1.05,5.16-1.05l7.25.04c2.68,0,4.18.67,5.28,1.16,1.49.68,2.64.61,4.06.02,1.08-.44,2.55-1.04,5.15-1.04,2.33,0,3.62.34,4.65.61,1.66.43,4.1.32,5.47.07,1.09-.21,2.19-.41,4.37-.41,1.55,0,2.33-.1,3.11-.2,1.03-.13,2.07-.26,4.13-.26,1.88,0,2.82.03,3.76.06.87.03,1.75.06,3.49.06,2.67,0,4.16.66,5.26,1.15,1.8.8,3.42.44,4.8.16.98-.2,2.22-.45,4.44-.45,1.69,0,2.54-.05,3.38-.1.97-.05,1.93-.11,3.87-.11,2.09,0,3.14.14,4.18.29.77.1,1.53.21,3.07.21l7.26-.08c1.37,0,1.94-.13,2.74-.31,1.01-.23,2.26-.51,4.52-.51,1.89,0,2.84.04,3.79.07.87.03,1.74.07,3.47.07l7.26.04c1.36,0,1.93-.13,2.73-.32,1.01-.23,2.27-.52,4.55-.52,2.75,0,4.36.78,5.42,1.3,1.46.71,2.25.72,3.73,0,1.05-.51,2.65-1.28,5.4-1.28,2.13,0,3.19.16,4.25.33,1.55.22,4.65.23,6.21.05,1.02-.12,2.05-.23,4.1-.23,2.38,0,3.69.37,4.74.66,1.8.51,4.44.35,5.91.24,1.68-.11,4.74,0,6.7-.44,1-.21,2.25-.48,4.5-.48,2.59,0,4.06.58,5.13,1,1.48.58,2.73.61,4.22,0,1.09-.46,2.57-1.07,5.2-1.07,2.24,0,3.47.26,4.47.46.82.17,1.41.29,2.81.29,2.43,0,3.76.41,4.83.74,1.51.46,3.31.48,4.84,0,1.02-.32,2.42-.77,4.86-.77s3.69.37,4.74.67c1.53.45,3.53.43,5.07,0,1.04-.29,2.34-.65,4.71-.65,1.63,0,2.45-.07,3.26-.15,1-.09,2-.18,4-.18s3.12.14,4.16.27c.78.1,1.55.21,3.1.21,1.97,0,2.95.07,3.94.15.83.06,1.66.13,3.32.13,1.92,0,2.87.05,3.83.09,1.4.06,3.7.38,5.65-.33,1.05-.39,2.5-.92,5.04-.92,2.06,0,3.09.12,4.12.25.79.09,1.57.19,3.14.19,2.63,0,4.12.62,5.2,1.08,1.44.61,2.6.65,4.08,0,1.09-.47,2.59-1.12,5.24-1.12,2.15,0,3.22.18,4.3.36,1.4.24,3.92.35,5.61-.09,1.02-.26,2.3-.57,4.62-.57,1.93,0,2.9.05,3.86.1.86.04,1.71.09,3.41.09,2.59,0,4.06.58,5.13,1.01,1.44.58,2.61.66,4.11-.03,1.11-.49,2.61-1.17,5.29-1.17,2.54,0,3.99.53,5.04.92,2.05.75,4.52.44,6,.48,1.65.04,4.96.07,6.61-.15,1.05-.14,2.1-.28,4.18-.28,1.37,0,1.94-.13,2.74-.32,1.01-.24,2.27-.52,4.55-.52,2.72,0,4.24.71,5.35,1.23,1.37.64,2.09.81,3.69-.02,1.08-.58,2.71-1.44,5.54-1.44,2.05,0,3.07.11,4.1.23.79.09,1.59.18,3.18.18,2.41,0,3.74.4,4.8.71,1.45.45,3.07.57,4.67-.05,1.07-.41,2.52-.96,5.09-.96,2.15,0,3.23.17,4.29.35.75.12,1.49.25,2.99.25,2.01,0,3.01.09,4.02.18.81.08,1.62.15,3.25.15,2.08,0,3.12.13,4.15.27.78.1,1.56.2,3.13.2,1.92,0,2.89.05,3.85.1,1.62.07,4.82.1,6.45-.14,1.06-.16,2.13-.33,4.24-.33,2.23,0,3.45.25,4.44.45,1.72.35,4.42.28,5.91.08,1.05-.15,2.1-.29,4.19-.29,1.98,0,2.97.08,3.96.15,1.77.15,5.3.14,7.07.19l3.52.05c1.11,0,1.49-.14,2.25-.42,1.05-.38,2.49-.91,5.03-.91l7.28-.04c1.66,0,2.49-.06,3.32-.13.99-.08,1.99-.15,3.97-.15,2.57,0,4.03.55,5.1.96,1.6.62,3.19.49,4.67.05,1.07-.32,2.39-.72,4.82-.72l7.29-.05c2.06,0,3.1.12,4.12.25.79.09,1.58.19,3.17.19l7.29-.05,7.28.04c1.6,0,2.4-.09,3.21-.17,1.02-.11,2.04-.22,4.08-.22s3.01.09,4.01.19c1.6.15,4.79.14,6.39-.02,1.02-.11,2.04-.23,4.07-.23,2.35,0,3.65.35,4.69.63,1.97.53,4.82.37,6.41.46.85.04,1.7.09,3.4.09,2,0,3,.09,4.01.18,1.44.14,3.96.32,5.78-.21,1.06-.31,2.37-.69,4.76-.69,1.93,0,2.9.05,3.86.1.86.04,1.71.09,3.42.09,2.08,0,3.12.13,4.15.26.79.1,1.57.2,3.14.2,2.02,0,3.03.09,4.04.19,1.39.14,3.72.4,5.56-.25,1.04-.37,2.47-.88,4.99-.88,1.57,0,2.35-.1,3.13-.2,1.04-.13,2.08-.26,4.14-.26,2.34,0,3.64.35,4.68.62.78.21,1.3.35,2.59.35l7.27-.09c1.9,0,2.86.04,3.81.08,1.59.07,4.81.09,6.4-.18,1.08-.18,2.16-.37,4.31-.37,2.04,0,3.06.11,4.08.22.79.08,1.58.17,3.18.17,2.06,0,3.09.13,4.12.26,1.41.16,4,.3,5.75-.15,1.03-.27,2.31-.6,4.65-.6,2.21,0,3.3.21,4.4.43.71.14,1.43.28,2.86.28l7.26.08c2.06,0,3.09.12,4.12.25,1.74.2,5.2.2,6.92.25,1.54.04,4.39.15,6.23-.26,1.01-.23,2.27-.52,4.55-.52,1.3,0,1.82-.14,2.61-.35,1.04-.27,2.33-.61,4.69-.61s3.6.32,4.63.57c.8.2,1.35.34,2.67.34,2.21,0,3.3.21,4.41.42,1.33.26,3.66.42,5.37-.1,1.07-.33,2.39-.73,4.83-.73l3.53-.05c1.9-.05,5.71-.05,7.6.04,1.67.07,5.02.07,6.69-.08,1.01-.1,2.03-.2,4.04-.2s2.96.08,3.95.15c1.62.12,4.88.13,6.48-.07,1.04-.13,2.07-.25,4.13-.25,2.69,0,4.21.68,5.31,1.19,1.47.67,2.54.65,4.02,0,1.09-.48,2.59-1.13,5.26-1.13,2.81,0,4.43.84,5.51,1.39,2.06,1.08,3.69.45,4.89.27,1.06-.15,2.12-.3,4.23-.3,1.29,0,1.81-.14,2.59-.36,1.05-.29,2.35-.64,4.72-.64,2.53,0,3.97.52,5.02.89,1.76.62,4,.38,5.32.18,1.07-.16,2.14-.33,4.26-.33,1.4,0,2-.12,2.82-.3,1-.21,2.23-.47,4.48-.47,2.61,0,4.09.59,5.16,1.03,1.37.55,2.29.79,3.95-.05,1.07-.55,2.7-1.39,5.51-1.39,2.63,0,4.11.61,5.2,1.05.74.31,1.09.45,2.12.45l7.31-.08c1.97,0,2.95.06,3.93.13,1.69.11,5.05.11,6.76,0,.98-.06,1.97-.13,3.94-.13,1.58,0,2.37-.09,3.15-.19,1.03-.12,2.06-.24,4.11-.24,1.53,0,2.3-.11,3.08-.22,1.05-.15,2.1-.3,4.2-.3,1.91,0,2.86.04,3.82.08,1.61.07,4.87.09,6.51-.16,1.07-.16,2.14-.33,4.27-.33s3.29.2,4.39.4c.73.13,1.47.27,2.94.27,2.16,0,3.22.17,4.3.35,1.38.22,3.86.35,5.56-.12,1.05-.3,2.36-.67,4.75-.67,2.71,0,4.23.69,5.34,1.2,1.51.7,2.51.66,3.96,0,1.12-.51,2.64-1.2,5.35-1.2,2.12,0,3.17.15,4.23.3,1.62.23,4.89.22,6.51.1,1.86-.12,5.59-.11,7.47-.19.95-.03,1.9-.06,3.81-.06,2.1,0,3.15.14,4.2.28.78.11,1.57.21,3.15.21,2.05,0,3.08.11,4.09.22.81.09,1.62.18,3.23.18,1.9,0,2.85.03,3.8.06,1.75.07,5.18.07,6.89-.07,1-.07,2-.15,4-.15s3.09.11,4.12.21c1.46.16,4.11.29,5.93-.18,1.05-.28,2.36-.63,4.73-.63,2.17,0,3.25.17,4.33.34.77.12,1.53.25,3.07.25,2.24,0,4.06,1.82,4.06,4.05s-1.82,4.05-4.06,4.05-3.25-.17-4.33-.34c-1.44-.24-3.98-.36-5.71.11-1.06.28-2.37.63-4.75.63-2.06,0-3.09-.11-4.12-.21-1.65-.18-4.97-.17-6.63-.04-1,.07-2,.15-3.99.15s-2.84-.03-3.79-.06c-.89-.03-1.77-.06-3.54-.06-2.06,0-3.09-.11-4.12-.22-.8-.09-1.6-.18-3.21-.18-2.11,0-3.17-.14-4.21-.28-1.66-.22-5-.21-6.67-.14-1.79.05-5.4.06-7.21.18-.98.06-1.97.13-3.94.13-2.12,0-3.17-.15-4.23-.3-1.25-.17-3.18-.62-5.09.26-1.12.5-2.64,1.2-5.35,1.2s-4.23-.69-5.34-1.2c-1.76-.81-3.18-.49-4.53-.11-1.05.3-2.36.67-4.75.67-2.15,0-3.21-.17-4.29-.35-.75-.12-1.5-.24-3.02-.24-2.19,0-3.28-.2-4.38-.4-1.49-.27-4.49-.27-6-.03-1.07.16-2.14.33-4.27.33-1.91,0-2.86-.04-3.82-.08-1.62-.06-4.89-.08-6.53.14-1.05.15-2.1.3-4.21.3-1.58,0-2.37.09-3.16.19-1.03.12-2.06.24-4.1.24-1.69,0-2.53.06-3.38.12-1.96.13-5.89.13-7.85,0-.85-.05-1.69-.11-3.39-.11l-7.31.08c-2.63,0-4.11-.61-5.2-1.05-1.34-.56-2.28-.8-3.93.04-1.07.55-2.7,1.39-5.51,1.39-2.61,0-4.09-.59-5.16-1.03-1.77-.71-3.53-.44-4.96-.14-1,.21-2.24.47-4.48.47-1.52,0-2.28.12-3.04.23-1.07.16-2.13.33-4.26.33-2.53,0-3.96-.51-5.01-.89-1.61-.57-3.4-.46-4.87-.06-1.05.29-2.35.64-4.73.64-1.54,0-2.31.11-3.09.22-1.06.15-2.12.3-4.23.3-2.82,0-4.44-.84-5.52-1.39-1.58-.82-2.43-.63-3.83-.03-1.09.47-2.59,1.13-5.26,1.13s-4.21-.69-5.32-1.19c-1.99-.9-3.87-.42-5.11-.27-1.04.13-2.07.25-4.13.25s-2.96-.07-3.95-.15c-1.63-.11-4.93-.12-6.57.04-1.01.1-2.03.2-4.05.2-1.91,0-2.87-.04-3.83-.09-.86-.04-1.73-.08-3.46-.08l-3.54.05c-1.55.03-4.24-.17-6.22.43-1.07.33-2.39.73-4.83.73-2.21,0-3.31-.21-4.42-.42-.72-.14-1.44-.28-2.89-.28-2.32,0-3.6-.32-4.63-.57-1.58-.4-3.68-.41-5.28.01-1.04.27-2.34.61-4.69.61-1.36,0-1.93.13-2.73.32-1.01.23-2.27.52-4.55.52-1.88,0-2.82-.03-3.76-.06-.87-.03-1.75-.05-3.51-.05-2.07,0-3.1-.12-4.12-.25-.79-.1-1.57-.19-3.15-.19l-7.26-.08c-2.21,0-3.3-.21-4.4-.43-1.37-.27-3.81-.36-5.47.06-1.03.27-2.31.6-4.65.6-2.07,0-3.1-.13-4.13-.26-.77-.09-1.55-.19-3.12-.19-2.03,0-3.05-.11-4.06-.22-1.55-.16-4.62-.17-6.14.08-1.08.18-2.16.37-4.31.37-1.9,0-2.86-.04-3.81-.09-.86-.04-1.72-.07-3.45-.07l-7.27.09c-2.36,0-3.65-.35-4.69-.62-1.74-.47-4.29-.33-5.72-.15-1.6.2-4.3-.07-6.44.67-1.04.37-2.47.88-4.98.88-2.02,0-3.03-.09-4.04-.19-.82-.08-1.63-.16-3.27-.16-2.08,0-3.12-.13-4.15-.26-.79-.1-1.57-.2-3.14-.2-1.93,0-2.9-.05-3.86-.1-1.48-.08-4.04-.27-5.92.27-1.06.31-2.38.69-4.77.69-2.01,0-3.01-.09-4.02-.18-.81-.08-1.62-.15-3.25-.15-1.93,0-2.9-.05-3.86-.11-.85-.05-1.7-.09-3.39-.09-2.35,0-3.64-.35-4.68-.63-1.75-.48-4.3-.33-5.74-.17-1.02.11-2.04.23-4.07.23s-3-.09-4-.19c-1.61-.17-4.83-.15-6.44.01-1.02.11-2.04.22-4.08.22l-7.28-.05-7.29.05c-2.07,0-3.11-.12-4.13-.25-.79-.1-1.58-.19-3.16-.19l-7.29.05c-1.23,0-1.7.14-2.48.38-1.07.32-2.39.72-4.81.72-2.56,0-4.02-.55-5.08-.96-1.91-.74-4.17-.41-5.54-.3-.99.08-1.98.15-3.96.15l-7.28.03c-1.11,0-1.49.14-2.26.42-1.05.38-2.49.9-5.02.9-1.88,0-2.82-.02-3.76-.05l-3.51-.05c-1.98,0-2.97-.08-3.96-.15-1.59-.13-4.81-.14-6.39.08-1.05.14-2.1.29-4.2.29-2.24,0-3.46-.25-4.45-.46-1.7-.35-4.36-.28-5.84-.06-1.06.16-2.13.33-4.25.33-1.93,0-2.9-.05-3.86-.1-.86-.04-1.71-.09-3.41-.09-2.08,0-3.12-.13-4.15-.27-.78-.1-1.56-.2-3.13-.2-2,0-3-.09-4.01-.18-.81-.08-1.63-.15-3.26-.15-2.15,0-3.23-.17-4.29-.35-1.29-.21-3.39-.49-5.17.18-1.07.41-2.52.96-5.08.96-2.41,0-3.75-.4-4.81-.71-2.09-.61-4.94-.43-6.58-.6-1.2-.15-2.77-.86-4.93.31-1.08.57-2.71,1.44-5.55,1.44s-4.25-.71-5.36-1.23c-1.81-.85-3.31-.46-4.66-.15-1.01.23-2.28.52-4.56.52-1.55,0-2.32.1-3.1.21-1.05.14-2.1.28-4.18.28-1.88,0-2.83-.03-3.77-.06-.88-.03-1.75-.06-3.51-.06-2.54,0-3.99-.53-5.04-.92-1.39-.51-2.65-.66-4.2.04-1.11.5-2.61,1.17-5.3,1.17s-4.07-.58-5.14-1.01c-2.14-.85-4.5-.46-5.98-.54-1.52-.07-4.22-.22-6.07.24-1.02.26-2.3.57-4.61.57-2.15,0-3.22-.18-4.29-.36-1.23-.21-3.13-.61-4.99.21-1.09.47-2.59,1.12-5.24,1.12Z"/>
    <path class="cls-3" d="M852.77,494.77c-2.71,0-4.22-.7-5.33-1.21-.73-.34-1.01-.46-1.94-.46-2.09,0-3.13-.14-4.16-.28-1.29-.18-3.35-.53-5.2.23-1.08.43-2.55,1.03-5.15,1.03-1.93,0-2.89-.05-3.86-.11-.85-.05-1.7-.09-3.4-.09-1.98,0-2.98-.08-3.97-.16-.82-.07-1.64-.14-3.29-.14-2.11,0-3.16-.15-4.21-.31-1.56-.21-4.7-.21-6.27-.06-1.61.17-4.42-.04-6.48.58-1.07.32-2.39.73-4.82.73s-3.83-.44-4.84-.75c-1.49-.48-3.18-.53-4.72.03-1.04.36-2.46.86-4.97.86s-3.9-.48-4.93-.83c-.76-.26-1.18-.4-2.33-.4-2.28,0-3.53-.29-4.54-.51-1.33-.31-2.85-.67-4.67.15-1.1.51-2.62,1.2-5.32,1.2s-4.16-.65-5.25-1.12c-1.77-.77-3.36-.45-4.72-.13-1.02.24-2.28.54-4.58.54-1.67,0-2.5.06-3.33.13-.98.07-1.97.15-3.94.15-2.43,0-3.77-.41-4.84-.74-1.79-.56-4.2-.36-5.58-.18-1.04.13-2.08.26-4.15.26s-3.24-.18-4.32-.36c-1.15-.19-2.64-.87-4.71.24-1.08.57-2.71,1.44-5.54,1.44s-4.48-.88-5.56-1.46c-1.92-1.03-3.09-.48-4.37-.16-1.03.26-2.31.58-4.62.58l-7.27-.04c-1.9,0-2.86-.04-3.81-.08-1.52-.05-4.24-.19-6.11.26-1.02.25-2.29.56-4.6.56l-7.26.09c-2.12,0-3.18-.16-4.23-.32-1.6-.25-4.8-.23-6.39-.12-1.65.11-4.7,0-6.64.44-1,.22-2.25.5-4.52.5-2.74,0-4.34-.77-5.4-1.29-2.28-1.11-4.24-.5-5.62-.54-1.64-.06-4.92-.08-6.55.15-1.04.15-2.09.29-4.18.29-1.4,0-1.99.12-2.81.29-.98.2-2.22.46-4.44.46-2.38,0-3.69-.38-4.75-.68-1.38-.4-2.78-.65-4.46.09-1.1.49-2.61,1.17-5.28,1.17s-4.35-.79-5.41-1.31c-.72-.36-.96-.48-1.83-.48l-7.24-.05c-.94,0-1.22.13-1.95.46-1.1.5-2.61,1.18-5.29,1.18-2.36,0-3.67-.36-4.71-.65-1.65-.46-4.09-.33-5.44-.09-1.08.2-2.17.39-4.34.39s-3.17-.16-4.23-.32c-1.6-.24-4.79-.23-6.39-.12-1.65.1-4.7,0-6.64.41-.99.21-2.23.47-4.47.47l-7.25.05c-2.09,0-3.14-.14-4.18-.29-.77-.1-1.53-.21-3.07-.21-2.6,0-4.07-.6-5.15-1.03-1.39-.57-2.44-.7-3.99.03-1.05.5-2.64,1.25-5.36,1.25-2.01,0-3.01-.09-4.02-.19-1.58-.16-4.78-.15-6.38.03-1.03.12-2.05.24-4.11.24-2.52,0-3.95-.51-4.99-.89-.75-.27-1.15-.42-2.27-.42l-7.26.04c-1.05,0-1.42.14-2.15.43-1.07.42-2.53.98-5.1.98s-4.13-.64-5.22-1.1c-.75-.32-1.05-.45-2.04-.45l-7.26.02c-1.72,0-2.58.04-3.44.08-.96.05-1.91.09-3.82.09h-7.27c-1.23.01-1.7.16-2.47.39-1.06.32-2.39.71-4.8.71-2.65,0-4.14-.63-5.23-1.1-.75-.32-1.06-.45-2.05-.45-2.24,0-4.05-1.81-4.05-4.05s1.82-4.05,4.05-4.05c2.64,0,4.13.63,5.22,1.1,1.67.71,3.12.49,4.53.07,1.06-.32,2.39-.71,4.8-.71h7.27c1.72-.01,2.58-.05,3.44-.1.96-.04,1.91-.09,3.83-.09l7.26-.02c2.65,0,4.14.64,5.23,1.1,1.55.66,2.77.57,4.19.02,1.07-.41,2.53-.98,5.1-.98l7.26-.04c2.52,0,3.95.52,5,.89,1.78.64,4.06.38,5.4.23,1.03-.12,2.05-.24,4.1-.24s3.01.09,4.02.19c1.25.12,3.1.64,5.12-.31,1.05-.5,2.64-1.25,5.36-1.25s4.08.6,5.15,1.03c2.25.91,4.72.51,6.28.73.77.1,1.53.21,3.07.21l7.25-.05c1.39,0,1.97-.12,2.78-.3.99-.21,2.23-.47,4.47-.47,1.69,0,2.53-.05,3.38-.1.97-.05,1.93-.11,3.86-.11,2.11,0,3.17.16,4.23.32,1.48.22,4.45.23,5.92-.04,1.08-.2,2.17-.39,4.34-.39,2.36,0,3.66.36,4.71.65,1.34.38,2.76.69,4.48-.1,1.1-.5,2.61-1.18,5.3-1.18l7.24.05c2.76,0,4.36.79,5.42,1.31,1.51.74,2.36.66,3.79.01,1.1-.5,2.61-1.17,5.29-1.17,2.39,0,3.7.38,4.75.68,1.66.48,3.76.39,5.3.07.98-.2,2.22-.46,4.44-.46,1.53,0,2.3-.11,3.06-.21,1.04-.15,2.09-.29,4.18-.29,1.89,0,2.83.03,3.77.06.87.03,1.74.06,3.48.06,2.75,0,4.34.77,5.4,1.29,1.85.91,3.28.46,4.59.16,1-.22,2.26-.5,4.52-.5,1.68,0,2.52-.05,3.37-.11.97-.06,1.94-.13,3.89-.13,2.12,0,3.18.16,4.24.32.75.11,1.51.23,3.02.23l7.26-.09c1.32,0,1.86-.13,2.67-.33,1.02-.25,2.29-.56,4.6-.56,1.9,0,2.85.04,3.81.08.86.04,1.73.07,3.46.07l7.27.04c1.31,0,1.84-.13,2.65-.34,1.03-.26,2.3-.58,4.63-.58,2.84,0,4.48.88,5.56,1.46,1.46.79,2,.78,3.46,0,1.08-.57,2.71-1.44,5.54-1.44,2.16,0,3.23.18,4.31.36,1.52.25,4.59.25,6.12.05,1.03-.13,2.07-.26,4.14-.26,2.43,0,3.76.41,4.83.74,1.84.57,4.34.38,5.78.25,1.66-.12,4.71-.01,6.65-.47,1.02-.24,2.28-.54,4.57-.54,2.66,0,4.15.65,5.25,1.12,1.44.63,2.46.68,3.98-.01,1.1-.51,2.62-1.2,5.32-1.2,2.27,0,3.53.29,4.54.51.8.18,1.37.32,2.73.32,2.49,0,3.9.48,4.94.83,1.51.52,3.12.54,4.62,0,1.04-.37,2.47-.86,4.97-.86s3.83.44,4.84.75c1.53.49,3.33.48,4.87,0,1.07-.32,2.39-.73,4.81-.73,1.61,0,2.42-.08,3.22-.16,1.01-.1,2.02-.2,4.04-.2s3.16.15,4.21.31c.76.11,1.52.22,3.05.22,1.98,0,2.98.08,3.97.16.82.07,1.64.14,3.29.14,1.93,0,2.89.05,3.86.11,1.37.07,3.55.46,5.51-.35,1.08-.44,2.55-1.03,5.15-1.03,2.09,0,3.13.14,4.16.28.77.1,1.55.21,3.1.21,2.7,0,4.21.7,5.32,1.21,1.45.65,2.36.68,3.84,0,1.05-.5,2.64-1.26,5.37-1.26,2.19,0,3.28.2,4.37.4,1.36.25,3.8.38,5.45-.09,1.05-.29,2.34-.65,4.72-.65,1.94,0,2.91.06,3.89.11.84.05,1.69.1,3.38.1,2.67,0,4.16.66,5.26,1.13,1.41.62,2.32.74,3.87-.02,1.06-.52,2.66-1.31,5.43-1.31,2.61,0,4.08.6,5.16,1.03,2.11.85,4.44.45,5.91.5,1.64.06,4.92.09,6.55-.17,1.06-.16,2.12-.31,4.24-.31,1.33,0,1.85-.13,2.66-.34,1.03-.26,2.3-.58,4.63-.58,2.8,0,4.42.83,5.49,1.38,1.35.7,1.82.9,3.39-.02,1.1-.65,2.77-1.62,5.69-1.62,2.07,0,3.11.13,4.14.26.78.1,1.56.2,3.14.2,2.46,0,3.87.46,4.9.8,1.42.47,2.85.62,4.44-.05,1.09-.46,2.57-1.08,5.21-1.08,2.19,0,3.28.2,4.36.39.73.13,1.46.27,2.91.27,2.02,0,3.03.1,4.05.2.8.08,1.61.17,3.22.17,2.11,0,3.15.15,4.2.3.77.11,1.54.22,3.08.22,1.94,0,2.91.06,3.89.11,1.57.1,4.74.13,6.34-.15,1.08-.18,2.16-.36,4.31-.36,2.28,0,3.52.28,4.53.51,1.69.38,4.33.3,5.77.08,1.06-.16,2.12-.33,4.25-.33,1.99,0,2.99.08,3.99.17,1.75.15,5.3.15,7.06.2,1.4.04,3.64.42,5.66-.38,1.07-.43,2.54-1.02,5.14-1.02l7.29-.04c1.65,0,2.48-.07,3.3-.14,1-.08,2-.17,3.99-.17,2.63,0,4.12.62,5.2,1.08,1.6.66,3.03.52,4.46.05,1.03-.34,2.44-.81,4.92-.81l7.29-.06c2.09,0,3.13.14,4.17.28.78.1,1.55.21,3.11.21l7.28-.06,7.23.04c1.57,0,2.36-.09,3.14-.19,1.03-.12,2.05-.24,4.1-.24s3.03.1,4.04.21c1.58.17,4.78.16,6.35-.02,1.03-.13,2.06-.25,4.12-.25,2.41,0,3.74.39,4.8.71,2.02.58,4.77.39,6.35.49.85.05,1.69.1,3.39.1,2.02,0,3.04.1,4.05.2,1.4.13,3.86.34,5.68-.23,1.02-.32,2.41-.76,4.86-.76,1.95,0,2.92.06,3.89.11.86.05,1.71.1,3.41.1,2.1,0,3.15.14,4.2.29.77.11,1.54.22,3.1.22,2.03,0,3.05.1,4.06.21,1.32.14,3.5.45,5.38-.26,1.07-.42,2.52-.98,5.11-.98,1.54,0,2.3-.11,3.08-.21,1.05-.14,2.1-.29,4.19-.29,2.4,0,3.72.39,4.78.7,1.9.56,4.5.35,5.99.32,1.9-.05,5.68-.05,7.58.04,1.58.06,4.74.1,6.3-.19,1.1-.21,2.19-.41,4.38-.41,2.06,0,3.09.12,4.12.25.78.09,1.57.19,3.15.19,2.09,0,3.13.14,4.17.28,1.4.2,3.89.34,5.59-.15,1.06-.3,2.37-.67,4.75-.67,2.24,0,3.49.26,4.49.47.81.17,1.39.3,2.78.3l7.28.09c2.09,0,3.13.14,4.17.28.78.1,1.55.21,3.11.21,1.89,0,2.84.03,3.79.06,1.53.05,4.29.2,6.16-.28,1.04-.26,2.31-.58,4.65-.58,1.25,0,1.73-.14,2.52-.37,1.06-.31,2.38-.69,4.79-.69s3.67.35,4.72.64c.78.21,1.3.36,2.58.36,2.24,0,3.48.26,4.47.47,1.51.32,3.48.46,5.18-.1,1.03-.35,2.44-.82,4.93-.82,1.76,0,2.64-.03,3.52-.05,1.9-.05,5.69-.04,7.61.04,1.64.09,4.96.09,6.63-.09,1.03-.11,2.05-.22,4.09-.22s2.99.08,3.98.16c1.6.12,4.81.13,6.41-.07,1.05-.14,2.1-.28,4.2-.28,2.77,0,4.38.8,5.45,1.33,1.49.74,2.35.69,3.78,0,1.12-.53,2.66-1.26,5.4-1.26,2.9,0,4.56.94,5.66,1.56,2.17,1.23,3.54.45,4.67.27,1.08-.17,2.15-.34,4.29-.34,1.23,0,1.69-.14,2.47-.38,1.07-.32,2.39-.72,4.82-.72,2.59,0,4.06.57,5.13,1,1.79.69,3.87.39,5.14.18,1.09-.18,2.17-.36,4.33-.36,1.37,0,1.95-.13,2.75-.32,1.02-.24,2.28-.52,4.56-.52,2.69,0,4.19.66,5.3,1.15,1.31.58,2.05.89,3.69-.04,1.1-.62,2.76-1.56,5.65-1.56,2.7,0,4.21.68,5.32,1.18.73.33,1.03.47,1.99.47l7.31-.08c1.97,0,2.95.07,3.93.14,1.66.12,5,.12,6.66,0,.98-.07,1.97-.15,3.94-.15,1.56,0,2.36-.1,3.13-.2,1.04-.13,2.08-.27,4.16-.27,1.52,0,2.29-.12,3.05-.24,1.07-.16,2.12-.33,4.26-.33,1.93,0,2.9.04,3.86.09,1.61.07,4.82.1,6.46-.17,1.08-.18,2.17-.37,4.33-.37s3.33.22,4.44.44c.71.14,1.43.29,2.86.29,2.19,0,3.27.19,4.37.39,1.33.23,3.68.4,5.41-.12,1.08-.33,2.42-.75,4.88-.75,2.78,0,4.4.81,5.47,1.34,1.46.73,2.26.73,3.72,0,1.07-.54,2.68-1.35,5.47-1.35,2.15,0,3.22.16,4.3.33,1.6.25,4.83.23,6.43.11.99-.07,1.99-.14,3.97-.14,1.75,0,2.63-.03,3.5-.07.96-.03,1.92-.07,3.84-.07,2.12,0,3.18.16,4.25.32.77.11,1.53.23,3.07.23,2.08,0,3.12.12,4.17.25.79.09,1.59.19,3.2.19,1.92,0,2.87.04,3.83.06,1.72.07,5.16.07,6.89-.08,1.01-.09,2.02-.17,4.04-.17s3.13.12,4.16.24c.81.09,1.61.19,3.24.19,2.23,0,4.05,1.82,4.05,4.05s-1.82,4.05-4.05,4.05c-2.08,0-3.13-.12-4.17-.24-1.65-.2-4.94-.18-6.59-.04-1.01.09-2.02.17-4.04.17s-2.87-.03-3.83-.06c-.89-.03-1.78-.06-3.55-.06-2.08,0-3.12-.12-4.17-.25-.79-.09-1.59-.19-3.2-.19-2.14,0-3.2-.16-4.26-.32-1.66-.25-4.94-.24-6.57-.15-1.8.06-5.42.07-7.21.2-.99.07-1.99.14-3.97.14-2.15,0-3.22-.16-4.3-.33-1.19-.18-2.88-.75-4.9.25-1.07.53-2.69,1.35-5.48,1.35s-4.41-.81-5.48-1.34c-1.77-.88-3-.51-4.33-.1-1.08.34-2.42.75-4.87.75-2.18,0-3.26-.19-4.35-.39-.74-.13-1.48-.26-2.96-.26-2.22,0-3.33-.22-4.44-.44-1.46-.29-4.37-.27-5.85-.03-1.08.18-2.16.37-4.32.37-1.93,0-2.9-.04-3.86-.09-1.62-.08-4.89-.1-6.51.15-1.08.16-2.15.33-4.28.33-1.56,0-2.35.1-3.13.2-1.04.13-2.08.27-4.16.27-1.66,0-2.49.06-3.32.13-1.96.15-5.9.15-7.86,0-.83-.06-1.67-.12-3.33-.12l-7.31.08c-2.7,0-4.22-.68-5.33-1.19-1.3-.58-2-.89-3.63.04-1.1.62-2.76,1.56-5.66,1.56-2.68,0-4.2-.66-5.29-1.15-1.75-.77-3.39-.46-4.78-.15-1.02.23-2.28.52-4.57.52-1.49,0-2.25.13-2.99.25-1.09.18-2.17.36-4.32.36-2.59,0-4.05-.57-5.13-1-1.6-.61-3.18-.5-4.65-.05-1.07.32-2.39.72-4.81.72-1.51,0-2.28.12-3.04.24-1.07.17-2.14.34-4.27.34-2.89,0-4.55-.94-5.65-1.56-1.59-.91-2.25-.67-3.58-.03-1.12.53-2.66,1.26-5.4,1.26s-4.39-.8-5.46-1.33c-2.04-1.01-3.74-.43-4.97-.28-1.04.14-2.09.28-4.17.28-1.98,0-2.98-.08-3.97-.16-1.63-.14-4.9-.14-6.53.04-1.03.11-2.05.22-4.09.22-1.92,0-2.88-.05-3.85-.09-1.72-.09-5.21-.08-6.95-.04-1.51.05-4.08-.21-6.11.46-1.03.35-2.45.82-4.94.82-2.25,0-3.49-.26-4.48-.47-.82-.17-1.41-.3-2.81-.3-2.36,0-3.67-.35-4.72-.64-1.54-.42-3.54-.44-5.11.01-1.06.31-2.38.69-4.78.69-1.32,0-1.85.13-2.65.34-1.04.26-2.31.58-4.65.58-1.89,0-2.84-.03-3.79-.06-.88-.03-1.75-.06-3.51-.06-2.09,0-3.13-.14-4.17-.28-.78-.1-1.55-.21-3.11-.21l-7.28-.09c-2.24,0-3.48-.26-4.47-.47-1.56-.33-3.7-.41-5.31.06-1.06.3-2.37.67-4.75.67-2.09,0-3.12-.14-4.16-.28-.77-.11-1.54-.21-3.09-.21-2.06,0-3.09-.12-4.12-.25-1.49-.18-4.53-.2-6.03.08-1.1.21-2.19.41-4.37.41-1.92,0-2.87-.04-3.83-.09-1.74-.08-5.19-.08-6.95-.03-.94.03-1.87.05-3.75.05-2.4,0-3.72-.39-4.78-.7-1.77-.53-4.19-.34-5.56-.16-1.58.22-4.15-.13-6.36.72-1.07.42-2.52.98-5.1.98-2.03,0-3.04-.1-4.06-.21-.8-.08-1.6-.17-3.21-.17-2.11,0-3.16-.14-4.2-.29-.77-.1-1.54-.21-3.09-.21-1.95,0-2.92-.06-3.89-.11-1.47-.09-3.99-.3-5.83.28-1.03.33-2.42.77-4.88.77-2.03,0-3.05-.1-4.06-.2-.81-.08-1.62-.16-3.23-.16-1.95,0-2.92-.06-3.89-.12-.85-.05-1.69-.1-3.38-.1-2.4,0-3.73-.39-4.79-.71-1.78-.53-4.21-.34-5.61-.18-1.03.13-2.06.25-4.12.25s-3.04-.1-4.05-.21c-1.59-.17-4.77-.17-6.35.02-1.03.12-2.05.24-4.1.24l-7.23-.04-7.28.05c-2.09,0-3.13-.14-4.17-.28-.78-.1-1.55-.21-3.11-.21l-7.29.06c-1.17,0-1.59.14-2.36.4-1.03.34-2.45.81-4.93.81-2.64,0-4.13-.62-5.21-1.08-1.97-.81-4.04-.43-5.37-.31-1,.08-2,.17-4,.17l-7.29.04c-1.04,0-1.38.14-2.14.44-1.07.43-2.54,1.02-5.15,1.02-1.89,0-2.83-.03-3.77-.06-.88-.03-1.76-.06-3.51-.06-1.99,0-2.99-.08-3.99-.17-1.58-.13-4.73-.15-6.32.09-1.06.16-2.13.33-4.25.33-2.27,0-3.52-.28-4.52-.51-1.67-.37-4.29-.29-5.72-.06-1.08.18-2.16.36-4.3.36-1.94,0-2.9-.06-3.87-.11-.85-.05-1.7-.1-3.4-.1-2.11,0-3.15-.15-4.2-.3-.77-.11-1.54-.22-3.08-.22-2.03,0-3.04-.1-4.06-.21-.8-.08-1.6-.16-3.21-.16-2.18,0-3.26-.2-4.35-.39-1.24-.22-3.19-.58-4.99.18-1.09.46-2.57,1.08-5.21,1.08-2.47,0-3.88-.46-4.91-.8-2.13-.7-4.89-.45-6.51-.65-1.14-.14-2.43-1.02-4.73.31-1.1.65-2.77,1.62-5.69,1.62s-4.42-.83-5.5-1.38c-1.88-.96-3.13-.49-4.44-.15-1.03.26-2.3.58-4.64.58-1.53,0-2.29.11-3.06.23-1.06.16-2.12.31-4.23.31-1.89,0-2.83-.03-3.78-.06-.88-.03-1.75-.06-3.51-.06-2.61,0-4.08-.6-5.16-1.03-1.37-.56-2.36-.73-3.97.04-1.06.52-2.66,1.32-5.43,1.32s-4.16-.66-5.26-1.13c-2.23-.98-4.44-.5-5.89-.57-1.48-.1-4.13-.23-5.96.25-1.05.29-2.34.65-4.71.65-2.18,0-3.27-.2-4.36-.4-1.17-.21-2.91-.69-4.8.2-1.05.5-2.64,1.26-5.37,1.26Z"/>
    <path class="cls-3" d="M954.88,445.96c-2.71,0-4.22-.7-5.33-1.21-2.4-1.09-4.61-.54-6.12-.74-1.28-.17-3.34-.52-5.22.23-1.07.44-2.54,1.03-5.15,1.03-1.93,0-2.89-.05-3.86-.11-.85-.04-1.7-.09-3.41-.09-1.99,0-2.98-.08-3.98-.16-.82-.07-1.65-.14-3.31-.14-2.11,0-3.17-.15-4.22-.31-1.56-.23-4.73-.22-6.3-.06-1.62.17-4.43-.05-6.51.58-1.07.32-2.4.73-4.83.73s-3.78-.42-4.86-.75c-1.51-.47-3.19-.52-4.75.02-1.04.36-2.46.86-4.98.86s-3.91-.48-4.94-.83c-.77-.26-1.19-.41-2.35-.41-2.27,0-3.52-.29-4.53-.51-1.35-.31-2.89-.66-4.69.15-1.11.51-2.62,1.2-5.32,1.2s-4.15-.65-5.24-1.12c-1.76-.75-3.37-.45-4.73-.13-1.02.24-2.29.54-4.57.54-1.66,0-2.49.06-3.32.13-.99.08-1.97.15-3.95.15-2.42,0-3.76-.41-4.83-.74-1.77-.54-4.16-.36-5.56-.18-1.04.13-2.07.26-4.13.26s-3.23-.18-4.3-.36c-1.14-.19-2.62-.87-4.68.24-1.08.57-2.71,1.44-5.54,1.44s-4.47-.88-5.55-1.46c-1.92-1.04-3.07-.49-4.35-.16-1.02.26-2.3.58-4.62.58l-7.26-.04c-1.9,0-2.85-.04-3.81-.08-1.53-.07-4.26-.2-6.12.26-1.02.25-2.3.56-4.6.56l-7.26.09c-2.12,0-3.18-.16-4.24-.32-1.6-.26-4.8-.24-6.4-.12-1.67.11-4.7,0-6.65.44-1,.22-2.25.5-4.52.5-2.75,0-4.34-.77-5.4-1.29-2.28-1.1-4.25-.49-5.65-.54-1.64-.06-4.93-.06-6.58.15-1.05.15-2.1.29-4.19.29-1.41,0-2,.12-2.82.29-.99.2-2.23.46-4.46.46-2.39,0-3.71-.38-4.76-.68-1.36-.38-2.82-.66-4.52.09-1.1.5-2.61,1.17-5.3,1.17s-4.36-.79-5.43-1.31c-.73-.36-.98-.48-1.86-.48l-7.28-.05c-.94,0-1.22.13-1.97.46-1.1.5-2.62,1.18-5.31,1.18-2.37,0-3.67-.36-4.72-.65-1.67-.45-4.11-.33-5.47-.09-1.09.2-2.18.39-4.35.39s-3.18-.16-4.24-.32c-1.6-.25-4.81-.22-6.41-.12-1.67.08-4.73,0-6.66.41-.99.21-2.23.47-4.47.47l-7.26.05c-2.09,0-3.14-.14-4.18-.29-.77-.1-1.53-.21-3.07-.21-2.6,0-4.08-.6-5.15-1.03-1.39-.56-2.45-.7-4,.03-1.05.5-2.64,1.25-5.36,1.25-2,0-3.01-.09-4.01-.19-1.58-.14-4.78-.16-6.38.03-1.03.12-2.05.24-4.11.24-2.52,0-3.95-.52-5-.89-.76-.27-1.15-.41-2.25-.41l-7.25.04c-1.05,0-1.42.14-2.15.43-1.06.42-2.52.98-5.09.98s-4.13-.64-5.22-1.1c-.74-.32-1.04-.45-2.02-.45l-7.25.02c-1.71,0-2.57.04-3.43.09-.95.04-1.9.09-3.81.09h-7.25c-1.22.01-1.68.16-2.45.39-1.06.32-2.38.71-4.79.71-2.64,0-4.13-.63-5.21-1.1-1.66-.71-3.1-.49-4.5-.08-1.06.32-2.38.71-4.78.71l-7.25.06c-1.92,0-2.88-.05-3.83-.1-.85-.04-1.71-.09-3.41-.09-2.15,0-3.22-.18-4.3-.36-.74-.12-1.47-.25-2.95-.25l-7.25-.09c-.94,0-1.22.13-1.95.46-1.1.5-2.61,1.18-5.3,1.18-2.34,0-3.62-.34-4.66-.61-.78-.21-1.3-.35-2.59-.35l-7.25.05c-1.95,0-2.92-.06-3.9-.13-1.52-.09-4.34-.2-6.11.19-1,.22-2.25.49-4.5.49-2.75,0-4.34-.77-5.4-1.28-1.55-.75-2.49-.63-3.91-.02-1.09.46-2.58,1.1-5.22,1.1-2.16,0-3.24-.19-4.33-.38-.73-.13-1.47-.26-2.94-.26-2.13,0-3.2-.16-4.26-.33-1.2-.19-2.91-.73-4.87.24-1.06.51-2.66,1.29-5.41,1.29-2.92,0-4.59-.98-5.69-1.63-.72-.43-.87-.51-1.58-.51-2.24,0-4.05-1.82-4.05-4.05s1.82-4.05,4.05-4.05c2.92,0,4.59.98,5.7,1.63,1.61.95,2.13.68,3.44.03,1.06-.51,2.66-1.29,5.41-1.29,2.13,0,3.2.16,4.26.33.75.12,1.5.24,3.01.24,2.17,0,3.25.19,4.33.38,1.22.22,3.12.59,4.98-.19,1.09-.46,2.58-1.1,5.22-1.1s4.34.77,5.4,1.28c1.86.91,3.3.46,4.62.17,1-.22,2.25-.49,4.5-.49,1.95,0,2.93.06,3.91.13.84.05,1.67.11,3.35.11l7.25-.05c2.34,0,3.63.34,4.66.61,1.35.36,2.79.67,4.54-.11,1.1-.5,2.61-1.18,5.3-1.18l7.25.09c2.15,0,3.23.18,4.3.36.74.12,1.47.25,2.95.25,1.91,0,2.87.05,3.83.1.86.04,1.71.09,3.42.09l7.25-.06c1.22,0,1.69-.14,2.46-.37,1.06-.32,2.38-.71,4.78-.71,2.64,0,4.13.63,5.21,1.1,1.66.7,3.09.48,4.49.08,1.06-.32,2.38-.71,4.79-.71h7.25c1.71-.01,2.57-.05,3.43-.1.95-.04,1.9-.09,3.81-.09l7.25-.02c2.64,0,4.13.64,5.22,1.1,1.53.66,2.75.57,4.17.02,1.06-.42,2.52-.98,5.09-.98l7.25-.04c2.51,0,3.95.51,4.99.88,1.78.65,4.06.39,5.4.23,1.03-.12,2.05-.24,4.11-.24s3.01.09,4.02.19c1.26.12,3.1.64,5.12-.31,1.05-.5,2.64-1.25,5.36-1.25s4.08.6,5.15,1.03c2.27.92,4.72.51,6.29.73.77.1,1.53.21,3.07.21l7.26-.05c1.39,0,1.98-.12,2.79-.3.99-.21,2.23-.47,4.47-.47,1.69,0,2.54-.05,3.39-.1.97-.05,1.93-.11,3.87-.11,2.12,0,3.18.16,4.23.32,1.49.23,4.47.24,5.95-.03,1.09-.2,2.18-.39,4.35-.39,2.37,0,3.67.36,4.72.65,1.35.38,2.83.66,4.53-.11,1.1-.49,2.61-1.18,5.3-1.18l7.28.05c2.76,0,4.36.79,5.43,1.3,1.53.75,2.45.65,3.85.02,1.1-.49,2.61-1.16,5.29-1.16,2.39,0,3.71.38,4.76.68,1.64.46,3.8.39,5.35.07.99-.2,2.23-.45,4.46-.45,1.54,0,2.31-.11,3.09-.21,1.05-.15,2.1-.29,4.19-.29,1.89,0,2.84.03,3.78.06.88.04,1.75.06,3.49.06,2.75,0,4.34.77,5.4,1.29,1.86.91,3.3.46,4.62.16,1-.22,2.26-.5,4.52-.5,1.69,0,2.53-.05,3.37-.11.97-.06,1.94-.13,3.89-.13,2.12,0,3.18.16,4.24.32.76.12,1.52.23,3.03.23l7.26-.09c1.32,0,1.86-.13,2.66-.33,1.02-.25,2.3-.56,4.6-.56,1.9,0,2.85.04,3.81.08.86.03,1.73.07,3.45.07l7.26.04c1.31,0,1.84-.13,2.64-.34,1.02-.26,2.3-.58,4.62-.58,2.84,0,4.47.88,5.55,1.46,1.46.79,1.99.78,3.44,0,1.08-.57,2.71-1.44,5.53-1.44,2.16,0,3.23.18,4.3.36,1.52.26,4.57.25,6.08.06,1.04-.13,2.07-.26,4.13-.26,2.42,0,3.76.41,4.83.74,1.84.57,4.33.36,5.77.25,1.65-.12,4.7-.01,6.63-.47,1.02-.24,2.29-.54,4.58-.54,2.66,0,4.16.65,5.25,1.12,1.44.62,2.45.67,3.96,0,1.11-.51,2.62-1.2,5.33-1.2,2.28,0,3.53.29,4.54.51.8.18,1.38.32,2.73.32,2.48,0,3.91.48,4.94.83,1.52.51,3.14.51,4.67,0,1.04-.36,2.46-.86,4.97-.86s3.77.41,4.85.75c1.55.48,3.36.47,4.92,0,1.07-.33,2.39-.73,4.82-.73,1.61,0,2.42-.09,3.23-.16,1.01-.1,2.03-.2,4.06-.2s3.16.15,4.22.31c.76.11,1.52.22,3.06.22,2,0,2.99.08,3.99.16.82.07,1.65.14,3.3.14,1.94,0,2.9.05,3.87.11,1.37.07,3.53.46,5.53-.35,1.07-.43,2.54-1.03,5.15-1.03,2.08,0,3.12.14,4.16.27.77.1,1.55.21,3.11.21,2.71,0,4.22.7,5.33,1.21,1.46.66,2.38.69,3.85,0,1.06-.5,2.64-1.25,5.37-1.25,2.18,0,3.27.2,4.36.4,1.37.25,3.81.38,5.47-.09,1.05-.29,2.35-.65,4.71-.65,1.94,0,2.91.06,3.88.11.85.05,1.7.1,3.4.1,2.66,0,4.17.66,5.25,1.13,1.41.62,2.32.74,3.87-.02,1.06-.52,2.66-1.32,5.43-1.32,2.61,0,4.08.6,5.16,1.03,2.1.85,4.42.45,5.9.5,1.63.05,4.92.08,6.55-.17,1.06-.16,2.12-.31,4.23-.31,1.32,0,1.85-.13,2.65-.34,1.03-.26,2.3-.58,4.64-.58,2.8,0,4.42.83,5.5,1.38,1.36.7,1.84.89,3.4-.02,1.11-.64,2.77-1.62,5.69-1.62,2.07,0,3.11.13,4.14.26.78.1,1.57.2,3.15.2,2.47,0,3.88.46,4.91.8,1.45.46,2.87.62,4.45-.05,1.09-.45,2.57-1.08,5.21-1.08,2.18,0,3.28.2,4.36.39.73.13,1.45.27,2.92.27,2.02,0,3.03.1,4.04.21.8.08,1.6.16,3.2.16,2.1,0,3.15.15,4.2.3.76.11,1.52.22,3.05.22,1.94,0,2.91.06,3.88.11,1.57.1,4.73.13,6.32-.15,1.07-.18,2.15-.36,4.3-.36,2.27,0,3.52.28,4.52.51,1.7.38,4.33.3,5.78.08,1.06-.16,2.12-.33,4.24-.33,2,0,3,.08,4,.17,1.78.15,5.27.15,7.06.2,1.41.04,3.66.42,5.67-.39,1.08-.43,2.55-1.02,5.15-1.02l7.29-.04c1.65,0,2.47-.07,3.29-.14,1-.08,2-.17,3.99-.17,2.64,0,4.12.62,5.21,1.08,1.57.65,2.97.52,4.41.05,1.03-.35,2.43-.81,4.91-.81l7.26-.06c2.09,0,3.12.14,4.16.28.77.1,1.55.21,3.1.21l7.25-.05,7.26.04c1.57,0,2.37-.09,3.15-.19,1.03-.12,2.06-.24,4.11-.24s3.04.1,4.04.21c1.59.17,4.78.16,6.35-.03,1.03-.13,2.07-.25,4.12-.25,2.4,0,3.73.39,4.79.71,2.02.6,4.79.4,6.37.49.85.05,1.69.1,3.39.1,2.02,0,3.04.1,4.04.2,1.4.13,3.85.33,5.65-.22,1.03-.33,2.42-.77,4.88-.77,1.95,0,2.92.06,3.89.11.86.05,1.71.1,3.42.1,2.11,0,3.16.14,4.21.29.77.1,1.55.21,3.1.21,2.04,0,3.06.1,4.06.21,1.35.14,3.56.47,5.42-.27,1.07-.41,2.53-.97,5.1-.97,1.54,0,2.31-.11,3.09-.21,1.05-.14,2.11-.29,4.21-.29,2.4,0,3.73.39,4.79.7,1.9.56,4.52.36,6.01.32,1.91-.06,5.71-.06,7.61.04,1.58.07,4.77.11,6.34-.19,1.1-.2,2.2-.41,4.38-.41,2.06,0,3.1.12,4.12.24.79.09,1.58.19,3.18.19,2.11,0,3.16.14,4.2.28,1.42.2,3.94.33,5.66-.15,1.06-.3,2.38-.67,4.77-.67,2.25,0,3.49.26,4.49.47.82.17,1.41.3,2.82.3l7.31.09c2.1,0,3.14.14,4.18.28.78.1,1.55.21,3.11.21,1.89,0,2.84.03,3.79.06,1.54.04,4.28.2,6.18-.28,1.03-.26,2.31-.58,4.64-.58,1.25,0,1.73-.14,2.52-.37,1.06-.31,2.38-.69,4.79-.69s3.67.35,4.72.64c.79.21,1.31.36,2.61.36,2.25,0,3.48.26,4.48.47,1.49.32,3.49.48,5.2-.11,1.04-.34,2.45-.82,4.94-.82,1.76,0,2.64-.03,3.53-.05,1.89-.07,5.71-.05,7.62.04,1.65.09,4.98.1,6.61-.09,1.02-.11,2.04-.22,4.08-.22s2.98.08,3.97.16c1.6.13,4.83.14,6.44-.07,1.05-.14,2.1-.28,4.19-.28,2.78,0,4.4.8,5.47,1.33,1.49.75,2.36.71,3.79.01,1.12-.53,2.65-1.26,5.39-1.26,2.9,0,4.55.94,5.65,1.56,2.18,1.23,3.54.45,4.67.27,1.08-.17,2.15-.34,4.29-.34,1.25,0,1.73-.14,2.52-.38,1.07-.32,2.4-.72,4.83-.72,2.6,0,4.07.57,5.14.99,1.81.71,3.91.41,5.18.19,1.09-.18,2.18-.36,4.34-.36,1.38,0,1.97-.13,2.78-.32,1.02-.23,2.29-.52,4.58-.52,2.69,0,4.19.66,5.3,1.15,1.32.58,2.03.89,3.72-.05,1.1-.62,2.76-1.56,5.66-1.56,2.71,0,4.22.68,5.33,1.18.73.33,1.04.47,2,.47l7.36-.08c1.99,0,2.99.07,3.99.14,1.68.12,5.1.12,6.79,0,1-.07,2-.15,4-.15,1.59,0,2.39-.1,3.19-.2,1.06-.13,2.11-.27,4.21-.27,2.23,0,4.05,1.81,4.05,4.05s-1.82,4.05-4.05,4.05c-1.59,0-2.39.1-3.19.2-1.06.13-2.11.27-4.21.27-1.69,0-2.54.06-3.38.13-1.99.15-5.99.15-7.99,0-.84-.06-1.69-.12-3.39-.12l-7.36.08c-2.7,0-4.21-.68-5.32-1.18-1.34-.59-2.01-.89-3.69.04-1.1.62-2.76,1.56-5.66,1.56-2.69,0-4.2-.66-5.3-1.15-1.8-.79-3.43-.46-4.82-.14-1.02.23-2.29.52-4.58.52-1.5,0-2.26.13-3,.25-1.09.18-2.17.36-4.33.36-2.59,0-4.07-.57-5.13-.99-1.62-.62-3.23-.5-4.71-.06-1.07.32-2.4.72-4.84.72-1.51,0-2.28.12-3.04.24-1.07.17-2.14.34-4.27.34-2.9,0-4.55-.94-5.65-1.56-1.6-.92-2.22-.66-3.56-.04-1.06.5-2.65,1.27-5.4,1.27s-4.4-.8-5.47-1.33c-2.02-1.01-3.77-.44-5-.28-1.05.14-2.09.28-4.18.28-1.99,0-2.99-.08-3.98-.16-1.62-.12-4.89-.14-6.5.04-1.02.11-2.04.22-4.07.22-1.92,0-2.88-.05-3.84-.09-1.74-.1-5.22-.08-6.96-.03-1.52.05-4.12-.2-6.13.45-1.04.35-2.45.82-4.95.82-2.25,0-3.49-.26-4.49-.47-.82-.17-1.41-.3-2.82-.3-2.37,0-3.68-.35-4.73-.64-1.56-.42-3.56-.43-5.13.01-1.06.31-2.38.69-4.78.69-1.31,0-1.85.13-2.65.34-1.04.26-2.32.58-4.66.58-1.89,0-2.84-.03-3.79-.06-.88-.03-1.75-.06-3.51-.06-2.09,0-3.13-.14-4.18-.28-.78-.1-1.55-.21-3.12-.21l-7.31-.09c-2.26,0-3.5-.26-4.5-.47-1.56-.33-3.75-.4-5.36.06-1.06.3-2.37.67-4.77.67-2.1,0-3.14-.14-4.19-.28-.78-.1-1.55-.21-3.12-.21-2.06,0-3.1-.12-4.12-.24-1.52-.19-4.57-.2-6.07.08-1.1.2-2.2.41-4.38.41-1.92,0-2.88-.04-3.84-.09-1.74-.08-5.22-.08-6.97-.03-.94.03-1.88.05-3.76.05-2.4,0-3.73-.39-4.79-.7-1.77-.53-4.21-.35-5.59-.16-1.57.22-4.14-.13-6.37.72-1.07.41-2.53.98-5.12.98-2.04,0-3.06-.1-4.07-.21-.8-.08-1.61-.17-3.22-.17-2.1,0-3.16-.14-4.21-.29-.77-.11-1.55-.22-3.11-.22-1.95,0-2.93-.06-3.9-.11-1.46-.09-3.98-.3-5.85.29-1.02.32-2.41.76-4.86.76-2.02,0-3.04-.1-4.04-.2-.81-.08-1.61-.16-3.23-.16-1.95,0-2.92-.06-3.89-.12-.85-.05-1.69-.1-3.39-.1-2.41,0-3.74-.39-4.8-.71-1.77-.52-4.22-.34-5.61-.18-1.03.13-2.07.25-4.12.25s-3.04-.1-4.04-.21c-1.59-.16-4.8-.16-6.37.02-1.03.12-2.05.24-4.1.24l-7.26-.04-7.25.05c-2.09,0-3.12-.14-4.16-.28-.77-.1-1.55-.21-3.1-.21l-7.26.06c-1.16,0-1.58.14-2.35.4-1.03.35-2.43.81-4.91.81-2.63,0-4.12-.62-5.2-1.08-1.93-.81-4.05-.43-5.36-.31-1,.08-2,.17-3.99.17l-7.29.04c-1.05,0-1.39.14-2.15.44-1.08.43-2.55,1.02-5.15,1.02-1.89,0-2.83-.03-3.78-.06-.88-.02-1.76-.05-3.51-.05-2,0-2.99-.08-3.99-.17-1.59-.13-4.73-.16-6.32.09-1.06.16-2.13.33-4.25.33-2.28,0-3.52-.28-4.53-.51-1.67-.38-4.27-.31-5.7-.06-1.07.18-2.15.36-4.29.36-1.93,0-2.9-.06-3.86-.11-.85-.05-1.7-.1-3.39-.1-2.1,0-3.15-.15-4.2-.3-.76-.11-1.52-.22-3.05-.22-2.01,0-3.02-.1-4.03-.21-.8-.08-1.6-.16-3.21-.16-2.18,0-3.27-.2-4.36-.39-1.23-.22-3.18-.57-4.98.18-1.09.46-2.57,1.08-5.21,1.08-2.46,0-3.87-.46-4.9-.8-.76-.25-1.22-.4-2.39-.4-2.08,0-3.12-.13-4.15-.26-1.14-.14-2.44-1.02-4.73.31-1.11.65-2.77,1.62-5.7,1.62s-4.42-.83-5.5-1.38c-1.88-.96-3.14-.5-4.46-.15-1.03.26-2.31.58-4.63.58-1.52,0-2.29.11-3.05.23-1.06.16-2.12.31-4.23.31-1.89,0-2.83-.03-3.78-.06-.87-.03-1.75-.06-3.5-.06-2.61,0-4.08-.6-5.16-1.03-1.37-.55-2.37-.74-3.97.04-1.06.52-2.66,1.32-5.43,1.32s-4.17-.66-5.26-1.14c-2.23-.97-4.44-.49-5.88-.57-1.48-.09-4.13-.24-5.96.25-1.05.29-2.34.65-4.72.65-2.19,0-3.28-.2-4.37-.4-1.17-.22-2.91-.68-4.79.2-1.06.5-2.65,1.26-5.38,1.26Z"/>
    <path class="cls-3" d="M1013.96,586.4c-2.71,0-4.22-.7-5.33-1.21-2.43-1.13-4.62-.54-6.13-.75-1.31-.17-3.37-.5-5.22.24-1.08.44-2.55,1.04-5.16,1.04-1.93,0-2.9-.06-3.86-.11-.86-.05-1.71-.09-3.43-.09-2,0-3-.09-3.99-.17-.83-.07-1.65-.14-3.3-.14-2.12,0-3.16-.16-4.22-.31-1.59-.22-4.74-.22-6.32-.06-1.61.16-4.45-.06-6.51.57-1.07.33-2.4.74-4.83.74s-3.84-.45-4.86-.76c-1.48-.49-3.17-.52-4.72.02-1.05.37-2.47.87-4.99.87s-3.91-.49-4.95-.84c-.76-.26-1.18-.4-2.32-.4-2.28,0-3.53-.29-4.54-.52-1.35-.3-2.87-.69-4.68.16-1.11.5-2.62,1.21-5.33,1.21s-4.16-.65-5.26-1.14c-1.75-.76-3.33-.45-4.7-.13-1.01.25-2.29.55-4.58.55-1.67,0-2.51.06-3.34.12-.98.07-1.97.15-3.93.15-2.42,0-3.76-.42-4.83-.74-1.76-.53-4.18-.35-5.58-.19-1.04.14-2.07.27-4.14.27s-3.23-.19-4.31-.37c-1.15-.2-2.63-.85-4.71.24-1.08.57-2.71,1.44-5.54,1.44s-4.48-.88-5.56-1.46c-1.9-1.03-3.09-.49-4.37-.16-1.03.26-2.31.58-4.63.58l-7.29-.05c-1.92,0-2.87-.05-3.83-.09-1.52-.08-4.27-.2-6.13.26-1.02.26-2.3.57-4.62.57l-3.54.04c-.94.03-1.88.06-3.75.06-2.13,0-3.18-.17-4.25-.33-1.59-.25-4.81-.23-6.4-.12-1.66.1-4.7,0-6.65.44-1,.22-2.25.5-4.52.5-2.74,0-4.34-.78-5.4-1.29-2.29-1.11-4.25-.5-5.65-.54-1.63-.05-4.93-.08-6.57.15-1.05.15-2.1.3-4.19.3-1.4,0-1.99.12-2.81.29-.99.21-2.23.46-4.46.46-2.39,0-3.7-.39-4.75-.68-1.4-.42-2.8-.66-4.49.09-1.1.5-2.6,1.17-5.28,1.17s-4.36-.79-5.42-1.31c-.73-.36-.97-.47-1.84-.47l-7.26-.05c-.94,0-1.22.12-1.96.45-1.1.5-2.61,1.19-5.3,1.19-2.37,0-3.67-.37-4.72-.65-1.67-.46-4.1-.33-5.46-.1-1.09.2-2.18.4-4.35.4s-3.18-.17-4.24-.33c-1.6-.26-4.8-.23-6.4-.13-1.67.1-4.73,0-6.68.42-.99.21-2.23.48-4.47.48l-7.27.05c-2.1,0-3.15-.15-4.19-.3-.77-.11-1.54-.21-3.08-.21-2.61,0-4.08-.6-5.16-1.04-1.39-.55-2.47-.68-4.02.03-1.11.53-2.64,1.26-5.37,1.26-2.01,0-3.02-.1-4.03-.2-1.6-.16-4.82-.15-6.42.03-1.03.12-2.05.25-4.11.25-2.53,0-3.96-.51-5.01-.89-.75-.27-1.16-.42-2.28-.42l-7.29.05c-1.06,0-1.43.14-2.18.43-1.06.41-2.53.99-5.1.99s-4.14-.64-5.23-1.11c-.75-.32-1.06-.44-2.05-.44l-7.27.02c-1.73,0-2.59.04-3.45.08-.95.04-1.91.09-3.82.09l-7.27.02c-1.22,0-1.69.14-2.47.37-1.06.33-2.38.72-4.8.72-2.64,0-4.13-.63-5.21-1.1-1.67-.71-3.11-.49-4.52-.08-1.06.32-2.38.71-4.78.71l-7.26.05c-1.92,0-2.87-.05-3.83-.1-.86-.05-1.71-.09-3.42-.09-2.15,0-3.22-.18-4.29-.36-.74-.13-1.48-.25-2.96-.25-1.87,0-2.8-.03-3.73-.06l-3.52-.04c-.94,0-1.22.12-1.95.46-1.1.5-2.61,1.19-5.3,1.19-2.34,0-3.63-.35-4.66-.62-.78-.21-1.3-.34-2.59-.34l-7.25.05c-1.95,0-2.92-.07-3.9-.14-1.52-.1-4.32-.18-6.1.19-1,.23-2.25.5-4.5.5-2.74,0-4.34-.78-5.39-1.3-1.54-.73-2.48-.61-3.89-.02-1.08.46-2.57,1.1-5.21,1.1-2.16,0-3.24-.19-4.32-.39-.73-.12-1.46-.25-2.92-.25-2.12,0-3.18-.17-4.24-.34-1.18-.19-2.87-.7-4.84.24-1.06.52-2.65,1.31-5.4,1.31-2.92,0-4.59-.99-5.69-1.64-1.91-1.16-2.65-.52-3.87-.11-1.03.35-2.44.83-4.93.83-2.33,0-3.61-.34-4.64-.6-1.77-.47-4.38-.32-5.84-.19-1,.1-2,.2-4.01.2s-3.09-.13-4.12-.26c-1.16-.15-2.58-.94-4.78.31-1.09.61-2.73,1.53-5.6,1.53s-4.56-.97-5.66-1.6c-1.87-1.11-2.68-.54-3.92-.11-1.03.35-2.45.83-4.93.83s-3.73-.41-4.8-.72c-1.97-.6-4.66-.39-6.21-.44-1.35-.05-3.41-.53-5.47.41-1.1.5-2.6,1.17-5.28,1.17-2.45,0-3.86-.46-4.88-.79-2.06-.68-4.83-.44-6.42-.6-1.62-.16-4.85-.17-6.46,0-1.01.1-2.01.2-4.03.2s-2.97-.08-3.95-.16c-1.33-.11-3.37-.53-5.37.32-1.09.46-2.58,1.1-5.22,1.1-1.9,0-2.84-.04-3.79-.08-.87-.03-1.74-.06-3.48-.06-2.24,0-4.05-1.82-4.05-4.05s1.81-4.06,4.05-4.06c1.89,0,2.84.04,3.79.08,1.36.04,3.46.47,5.54-.39,1.09-.46,2.58-1.1,5.22-1.1,1.98,0,2.97.08,3.95.16,1.64.14,4.92.13,6.55-.03,1.01-.1,2.01-.2,4.03-.2s3.04.11,4.05.22c.81.08,1.61.16,3.21.16,2.45,0,3.86.45,4.88.79,1.36.45,2.73.66,4.36-.07,1.1-.5,2.6-1.17,5.28-1.17,1.88,0,2.81.03,3.75.06.88.03,1.75.05,3.51.05,2.41,0,3.74.41,4.8.72,1.51.46,3.2.51,4.78-.02,1.03-.35,2.45-.83,4.93-.83,2.9,0,4.56.97,5.66,1.6,1.47.86,1.83.81,3.24,0,1.09-.6,2.74-1.53,5.6-1.53,2.06,0,3.09.13,4.12.26,1.59.2,4.77.19,6.37.04,1-.1,2-.2,4.01-.2,2.32,0,3.61.34,4.64.6,1.49.4,3.31.5,4.93-.06,1.03-.35,2.44-.83,4.92-.83,2.92,0,4.59.99,5.69,1.64,1.58.96,2.1.66,3.4.04,1.06-.52,2.65-1.3,5.4-1.3,2.13,0,3.19.17,4.25.34.75.12,1.5.23,3,.23,2.16,0,3.24.19,4.32.38,1.23.22,3.12.6,4.96-.19,1.08-.46,2.57-1.1,5.21-1.1s4.34.78,5.4,1.3c1.86.89,3.28.45,4.59.17,1-.23,2.25-.5,4.5-.5,1.95,0,2.93.07,3.9.14.84.06,1.67.11,3.34.11l7.25-.05c2.34,0,3.63.35,4.66.62,1.35.36,2.79.68,4.54-.12,1.1-.5,2.61-1.19,5.3-1.19,1.87,0,2.8.03,3.73.06l3.52.04c2.15,0,3.22.18,4.29.36.74.13,1.48.25,2.96.25,1.92,0,2.88.05,3.84.1.86.05,1.71.09,3.42.09l7.26-.05c1.23,0,1.7-.14,2.48-.37,1.06-.32,2.37-.71,4.78-.71,2.64,0,4.13.63,5.21,1.1,1.68.71,3.13.5,4.52.08,1.06-.33,2.38-.72,4.79-.72l7.27-.02c1.73,0,2.59-.04,3.45-.08.95-.04,1.91-.09,3.82-.09l7.27-.02c2.65,0,4.14.64,5.23,1.11,1.55.65,2.8.58,4.22.02,1.07-.41,2.53-.99,5.11-.99l7.29-.05c2.52,0,3.96.51,5.01.89,1.82.64,4.1.39,5.45.24,1.03-.12,2.05-.25,4.11-.25s3.02.1,4.03.2c1.27.13,3.12.63,5.16-.32,1.11-.53,2.64-1.26,5.37-1.26s4.08.6,5.16,1.04c2.25.9,4.74.5,6.31.73.77.11,1.54.21,3.08.21l7.27-.05c1.39,0,1.98-.12,2.79-.3.99-.21,2.23-.48,4.48-.48,1.69,0,2.54-.05,3.38-.1.97-.06,1.94-.13,3.88-.13,2.12,0,3.18.17,4.24.33,1.47.23,4.45.24,5.93-.03,1.09-.2,2.18-.4,4.35-.4,2.37,0,3.67.37,4.71.65,1.35.38,2.76.68,4.51-.1,1.1-.5,2.61-1.19,5.3-1.19l7.26.05c2.75,0,4.36.79,5.42,1.31,1.52.75,2.43.65,3.82.02,1.1-.49,2.6-1.17,5.28-1.17,2.39,0,3.7.38,4.75.68,1.68.5,3.78.4,5.32.08.99-.21,2.22-.47,4.45-.47,1.54,0,2.3-.1,3.07-.21,1.05-.15,2.1-.3,4.19-.3,1.89,0,2.83.04,3.78.07.87.03,1.75.06,3.49.06,2.74,0,4.34.78,5.4,1.29,1.86.91,3.3.46,4.62.17,1-.22,2.25-.5,4.52-.5,1.69,0,2.53-.05,3.37-.11.97-.06,1.95-.13,3.9-.13,2.13,0,3.18.17,4.25.33.75.12,1.51.23,3.03.23l3.53-.04c1.59-.06,4.56.07,6.44-.39,1.02-.26,2.29-.57,4.61-.57,1.91,0,2.86.05,3.82.09.86.04,1.73.07,3.47.07l7.29.05c1.32,0,1.85-.13,2.65-.34,1.03-.26,2.3-.58,4.63-.58,2.84,0,4.48.88,5.56,1.46,1.45.8,2.01.77,3.46,0,1.08-.57,2.71-1.44,5.54-1.44,2.16,0,3.23.19,4.31.37,1.53.28,4.59.24,6.1.06,1.04-.14,2.07-.27,4.13-.27,2.42,0,3.76.42,4.83.74,1.82.55,4.34.36,5.79.26,1.65-.12,4.69,0,6.64-.46,1.01-.25,2.28-.55,4.57-.55,2.66,0,4.16.65,5.24,1.13,1.45.63,2.45.7,3.98,0,1.11-.5,2.62-1.21,5.32-1.21,2.28,0,3.53.29,4.54.52.8.18,1.38.31,2.74.31,2.48,0,3.9.49,4.94.84,1.51.52,3.12.53,4.63-.01,1.05-.37,2.47-.87,4.99-.87s3.84.45,4.86.76c1.53.5,3.33.48,4.88,0,1.07-.33,2.4-.74,4.84-.74,1.63,0,2.44-.08,3.25-.16,1.01-.1,2.02-.2,4.04-.2s3.16.16,4.22.31c.77.11,1.54.22,3.08.22,1.99,0,2.99.09,3.98.17.83.07,1.66.14,3.31.14,1.94,0,2.91.06,3.87.11,1.37.08,3.56.45,5.54-.35,1.08-.43,2.55-1.04,5.16-1.04,2.09,0,3.13.14,4.18.28.78.11,1.55.21,3.12.21,2.71,0,4.22.7,5.33,1.21,1.45.68,2.32.72,3.82,0,1.05-.5,2.63-1.26,5.36-1.26,2.18,0,3.26.2,4.35.41,1.37.25,3.78.36,5.43-.09,1.04-.29,2.34-.65,4.7-.65,1.94,0,2.91.06,3.88.12.84.05,1.69.1,3.38.1,2.66,0,4.15.65,5.25,1.14,1.39.6,2.33.71,3.86-.03,1.07-.52,2.67-1.32,5.43-1.32,2.61,0,4.09.6,5.16,1.04,2.11.83,4.45.46,5.9.5,1.65.06,4.91.09,6.57-.17,1.06-.16,2.12-.32,4.24-.32,1.32,0,1.85-.13,2.65-.34,1.03-.26,2.3-.58,4.63-.58,2.8,0,4.42.83,5.49,1.38,1.37.7,1.83.91,3.38-.02,1.1-.65,2.76-1.63,5.68-1.63,2.07,0,3.1.13,4.13.27.78.09,1.56.19,3.13.19,2.46,0,3.87.47,4.9.8,1.44.48,2.8.64,4.42-.05,1.08-.46,2.57-1.09,5.2-1.09,2.17,0,3.25.2,4.34.4.72.13,1.46.26,2.91.26,2.03,0,3.04.11,4.05.22.8.08,1.61.16,3.21.16,2.1,0,3.16.15,4.2.3.76.11,1.53.22,3.05.22,1.94,0,2.91.06,3.88.12,1.57.09,4.75.13,6.34-.15,1.08-.18,2.15-.37,4.3-.37,2.28,0,3.52.29,4.53.51,1.69.38,4.32.31,5.75.08,1.07-.17,2.13-.34,4.26-.34,2,0,2.99.09,3.99.18,1.78.15,5.31.15,7.08.21,1.4.05,3.66.41,5.68-.39,1.07-.43,2.54-1.02,5.14-1.02l7.31-.04c1.65,0,2.47-.07,3.3-.14,1-.09,2-.18,4-.18,2.64,0,4.12.63,5.21,1.09,1.58.66,3.02.52,4.45.05,1.03-.34,2.44-.81,4.92-.81l7.28-.06c2.09,0,3.13.14,4.17.28.78.11,1.55.21,3.11.21l7.28-.06,7.29.05c1.58,0,2.37-.09,3.17-.19,1.03-.12,2.06-.25,4.12-.25s3.05.11,4.07.22c1.6.17,4.82.17,6.43-.03,1.03-.12,2.07-.25,4.13-.25,2.41,0,3.74.4,4.81.71,2.04.57,4.8.39,6.39.49.86.05,1.71.1,3.41.1,2.03,0,3.04.11,4.06.22,1.41.13,3.87.36,5.66-.23,1.03-.33,2.42-.77,4.88-.77,1.95,0,2.92.06,3.89.12.86.05,1.71.1,3.41.1,2.11,0,3.15.15,4.21.3.77.11,1.55.21,3.11.21,2.04,0,3.07.11,4.08.22,1.35.14,3.56.46,5.43-.27,1.07-.41,2.54-.98,5.12-.98,1.55,0,2.32-.1,3.11-.21,1.05-.14,2.1-.29,4.2-.29,2.41,0,3.74.39,4.8.7,1.91.55,4.52.37,6.03.32,1.9-.06,5.69-.06,7.58.04,1.58.07,4.74.11,6.34-.19,1.1-.21,2.19-.42,4.38-.42,2.07,0,3.11.13,4.13.25.8.1,1.59.19,3.17.19,2.11,0,3.16.15,4.21.29,1.41.21,3.94.35,5.67-.15,1.06-.31,2.37-.68,4.77-.68,2.26,0,3.5.27,4.5.49.81.18,1.41.3,2.8.3l7.31.08c2.1,0,3.14.14,4.19.28.79.11,1.58.21,3.16.21,1.9,0,2.85.04,3.8.07,1.54.05,4.32.2,6.21-.28,1.04-.26,2.32-.58,4.65-.58,1.27,0,1.77-.15,2.55-.37,1.07-.32,2.39-.7,4.81-.7s3.68.36,4.74.64c.78.22,1.31.36,2.6.36,2.25,0,3.49.26,4.49.46,1.52.33,3.51.47,5.23-.1,1.04-.35,2.45-.82,4.95-.82,1.78,0,2.67-.02,3.56-.05,1.92-.07,5.76-.06,7.7.04,1.68.1,5.04.1,6.73-.09,1.04-.11,2.08-.23,4.14-.23s3.02.09,4.03.17c.84.07,1.68.13,3.37.13,2.24,0,4.06,1.82,4.06,4.06s-1.82,4.06-4.06,4.06c-2.01,0-3.02-.09-4.03-.17-1.65-.15-4.98-.14-6.63.05-1.04.11-2.07.23-4.13.23-1.95,0-2.92-.05-3.9-.1-1.76-.1-5.28-.1-7.04-.04-1.54.05-4.15-.22-6.19.46-1.04.35-2.45.82-4.94.82-2.25,0-3.49-.26-4.49-.46-.83-.18-1.43-.3-2.85-.3-2.37,0-3.68-.36-4.74-.64-1.54-.43-3.57-.42-5.15.01-1.07.32-2.39.7-4.81.7-1.32,0-1.86.13-2.67.34-1.04.26-2.32.58-4.66.58-1.91,0-2.86-.04-3.81-.07-.88-.03-1.76-.06-3.52-.06-2.11,0-3.16-.14-4.21-.28-.78-.11-1.56-.21-3.13-.21l-7.31-.08c-2.26,0-3.5-.27-4.5-.49-1.55-.35-3.73-.42-5.35.07-1.06.3-2.37.67-4.76.67-2.11,0-3.16-.15-4.21-.29-.78-.11-1.56-.21-3.13-.21-2.07,0-3.1-.13-4.12-.25-1.53-.19-4.54-.21-6.08.08-1.1.21-2.2.42-4.39.42-1.92,0-2.87-.05-3.83-.1-1.74-.09-5.2-.09-6.95-.03-.94.03-1.87.06-3.75.06-2.4,0-3.73-.39-4.79-.7-1.78-.51-4.23-.36-5.64-.16-1.05.14-2.1.29-4.2.29-1.08,0-1.45.14-2.2.43-1.07.41-2.54.98-5.12.98-2.04,0-3.07-.11-4.08-.22-.81-.09-1.61-.17-3.23-.17-2.11,0-3.16-.15-4.21-.3-.77-.11-1.55-.21-3.11-.21-1.95,0-2.92-.06-3.89-.12-1.46-.09-3.99-.32-5.84.29-1.03.33-2.42.77-4.88.77-2.03,0-3.05-.11-4.06-.22-.81-.08-1.61-.16-3.23-.16-1.95,0-2.92-.06-3.89-.12-.86-.05-1.71-.1-3.41-.1-2.41,0-3.73-.4-4.8-.71-1.8-.52-4.26-.36-5.7-.18-1.03.12-2.07.25-4.13.25s-3.06-.11-4.07-.22c-1.61-.17-4.8-.18-6.41.03-1.03.12-2.06.25-4.12.25l-7.29-.05-7.28.06c-2.09,0-3.13-.14-4.17-.28-.78-.11-1.55-.21-3.11-.21l-7.28.06c-1.17,0-1.59.14-2.36.4-1.03.34-2.44.81-4.93.81-2.64,0-4.13-.63-5.22-1.09-1.94-.81-4.04-.42-5.37-.31-1,.09-2,.18-4,.18l-7.31.04c-1.05,0-1.4.14-2.16.44-1.07.43-2.54,1.02-5.15,1.02-1.89,0-2.83-.04-3.77-.07-.88-.02-1.76-.05-3.52-.05-2,0-3-.09-4-.18-1.58-.13-4.74-.15-6.31.09-1.07.17-2.13.34-4.25.34-2.27,0-3.52-.29-4.52-.51-1.67-.38-4.28-.31-5.71-.06-1.08.18-2.15.37-4.3.37-1.94,0-2.91-.06-3.88-.12-.84-.05-1.69-.1-3.38-.1-2.1,0-3.14-.15-4.18-.3-.77-.11-1.53-.22-3.07-.22-2.03,0-3.04-.11-4.05-.22-.8-.08-1.61-.16-3.21-.16-2.18,0-3.26-.2-4.35-.4-1.22-.23-3.12-.6-4.96.19-1.08.45-2.57,1.09-5.2,1.09-2.46,0-3.87-.47-4.9-.8-2.15-.71-4.89-.44-6.51-.66-1.14-.13-2.42-1.04-4.7.32-1.11.65-2.77,1.63-5.7,1.63s-4.42-.83-5.49-1.38c-1.87-.97-3.12-.48-4.44-.15-1.03.26-2.3.58-4.63.58-1.52,0-2.29.11-3.06.23-1.06.16-2.12.32-4.24.32-1.9,0-2.85-.04-3.79-.07-.88-.03-1.76-.06-3.51-.06-2.61,0-4.09-.6-5.16-1.04-1.38-.55-2.4-.73-3.97.04-1.07.52-2.67,1.31-5.43,1.31s-4.16-.65-5.25-1.14c-2.21-.96-4.44-.49-5.89-.56-1.47-.08-4.11-.24-5.92.25-1.04.29-2.35.65-4.7.65-2.18,0-3.26-.2-4.35-.41-1.17-.21-2.86-.68-4.77.21-1.05.49-2.63,1.26-5.35,1.26Z"/>
  </g>
  <g id="Bubbla">
    <path d="M1493.26,455.58c-1.46-166.95-165.36-241.4-531.44-241.4-7.8,0-15.67.04-23.68.1-.45,0-.86.01-1.31.02-.77,0-1.51,0-2.29,0-382.43,3.34-552.31,80.74-550.83,250.95,1.15,131.92,72.56,223.1,415.95,238.95-10.83,36.83-38.51,90.91-107.82,150.96-2.16,1.87-2.73,5-1.34,7.51,1.09,1.99,3.17,2.89,5.33,3.16,1.22.15,4.04.19,5.32-.29,3.7-1.38,92.94-28.85,182.05-159.1,17.96.2,36.34.29,55.64.11.52,0,1.01-.02,1.53-.02.69-.01,1.36,0,2.06-.01,222.84-1.94,372.02-26.5,456.03-75.08,84.47-48.85,95.33-116.31,94.8-175.86ZM1388.79,620.94c-81.94,47.38-228.63,71.39-448.38,73.43-20.93.16-40.88.05-60.27-.18-.09,0-.15.05-.24.06-1.1-.02-2.25-.02-3.34-.03-1.93-.05-3.96.98-5.11,2.67-49.68,73.42-100.06,114.04-134.38,135.48,51.18-53.23,71.87-100.28,79.95-132.45.45-1.77.07-3.65-1.03-5.11-1.09-1.47-2.78-2.36-4.61-2.44-378.39-16.05-411.02-125.72-411.91-227.25-.96-108.8,59.31-234.2,537.13-238.66,7.3-.06,14.51-.09,21.62-.09,458.52,0,518.38,122.57,519.31,229.35.48,56.05-9.67,119.52-88.74,165.23Z"/>
  </g>
  <g id="Text">
    <g>
      <path class="cls-1" d="M548.15,401.56c.61,5.71.24,11.54.24,17.25,0,4.62.12,9.23,1.34,13.73.12.49.24,1.09.24,1.58,0,3.28-3.89,7.17-7.17,7.17-2.92,0-6.2-2.79-6.56-5.71-1.09-7.89-.85-16.28-1.09-24.29-.61-17.98-.85-35.96-1.58-53.94-.12-2.43-.36-4.98-.36-7.41,0-12.27,12.15-11.54,21.02-11.54,5.59,0,34.99-.12,37.17,4.5.48,1.09.85,2.19.85,3.4,0,6.19-13.49,6.68-17.86,7.17-6.92.73-11.3,1.58-18.46,1.58-8.14,0-8.75,2.43-8.75,9.84,0,5.83.48,11.66,1.58,17.37h1.82c8.87,0,17.49-2.19,26.24-2.19,4.37,0,17-.24,17,5.96,0,11.05-36.93,8.74-45.68,15.55Z"/>
      <path class="cls-1" d="M699.67,414.31c-10.81,18.83-29.64,30.49-51.51,30.49-7.29,0-15.07-1.34-21.87-3.89-19.56-7.41-24.54-26.6-24.54-45.56,0-34.14,27.21-55.03,59.77-55.03,27.94,0,46.77,16.16,46.77,44.83,0,10.32-3.52,20.29-8.63,29.16ZM692.14,375.44c-5.22-14.21-21.87-19.2-35.6-19.2-19.92,0-38.88,12.88-40.81,33.77-.25,2.07-.25,4.25-.25,6.32,0,13.25,4.74,21.87,16.64,27.94,5.83,3.04,12.51,4.74,19.08,4.74,21.62,0,42.52-20.41,42.52-42.15,0-3.53-.37-8.14-1.58-11.42Z"/>
      <path class="cls-1" d="M807.25,439.58c-3.28,0-7.53-2.79-10.57-4.13-18.83-8.14-38.51-18.47-59.28-20.05-2.55,3.76-1.94,7.41-1.94,11.66,0,5.1-3.16,12.88-9.23,12.88-3.76,0-6.44-3.52-6.44-7.04,0-3.89.73-7.66,1.22-11.42.97-8.26,1.82-16.52,1.82-24.9,0-15.67-1.21-31.35-1.21-47.02,0-8.62,21.62-8.99,27.57-8.99,13.85,0,27.82,1.83,41.55,3.77,8.02,1.09,14.33,3.16,16.4,11.9.36,1.34.36,2.79.36,4.25,0,19.32-23.2,37.78-39.48,44.59,9.97,5.95,44.46,15.79,44.46,29.28,0,2.8-2.43,5.23-5.22,5.23ZM752.58,356.85c-5.35,0-10.69.24-16.03.85-1.46,4.01-2.07,8.14-2.07,12.39,0,8.14,2.07,16.16,2.07,24.29,2.06.73,4.37.98,6.56.98,10.81,0,20.9-5.96,29.52-11.91,5.1-3.53,18.22-11.9,18.22-18.59,0-7.29-32.44-8.02-38.27-8.02Z"/>
      <path class="cls-1" d="M896.36,437.64c-.97,2.43-2.67,4.13-5.47,4.13-5.35,0-7.41-3.28-7.41-7.77-13.12,1.09-30.01,10.69-41.55,10.69-20.3,0-20.54-25.27-20.54-39.85,0-12.27.48-24.42.48-36.69,0-5.35-.6-10.57-.6-15.92s2.67-10.2,8.38-10.2c4.5,0,7.77,2.19,7.77,6.92s-1.1,9.6-1.57,14.33c-1.22,10.82-1.7,21.63-1.7,32.44,0,5.95.24,22.96,3.27,27.57,1.7,2.43,3.89,2.43,6.56,2.43,7.17,0,33.65-4.74,38.4-9.23,2.42-9.72,2.79-19.56,2.79-29.52,0-11.42-.25-22.72-1.35-34.14-.24-2.19-.48-4.5-.48-6.68,0-3.89,2.06-7.04,6.19-7.04,11.06,0,8.39,8.14,8.39,15.91,0,17.25.84,34.38.84,51.63,0,7.17,0,24.78-2.42,30.98Z"/>
      <path class="cls-1" d="M1022.99,415.52c0,5.23,0,20.41-1.33,24.91-.6,2.06-2.07,3.65-4.37,3.65-7.29,0-10.21-4.86-10.21-11.66,0-11.66.6-23.32.6-34.99,0-7.17-.36-13.49-2.43-20.41-12.15,14.7-19.92,31.47-27.58,48.72-2.55,5.71-5.47,17.98-13,17.98-8.75,0-9.23-13.37-12.39-19.07-.6-1.1-1.33-1.95-1.94-3.04l-19.44-33.89c-2.3,5.59-2.68,11.79-2.68,17.74,0,5.46.25,10.81.25,16.28s.73,16.03-7.04,16.03c-4.62,0-7.17-1.82-7.17-6.68,0-8.38,1.7-16.76,1.7-25.15,0-15.67-2.3-31.34-2.3-47.02,0-6.8.6-14.7,9.35-14.7,1.46,0,2.8.61,4.02,1.34,4.86,3.16,5.84,13.61,8.74,18.71,2.79,4.98,5.95,9.72,8.63,14.82,5.96,11.05,11.3,22.47,19.31,32.31,18.23-18.46,25.64-44.58,40.82-65.24,2.19-2.91,4.5-7.04,8.62-7.04,4.38,0,8.99,4.01,9.72,7.65.97,4.5-.61,11.66-.49,16.28.37,10.81.61,21.62.61,32.44v20.04Z"/>
      <path class="cls-1" d="M1132.3,397.43c-15.8,1.34-26.12-.61-40.7,8.14-.12,1.34-.25,2.79-.25,4.13,0,7.66,1.95,15.07,1.95,22.72,0,5.47-.85,13.85-8.26,13.85-4.25,0-6.19-4.62-6.19-8.26,0-7.29-.25-14.58-.37-21.87-.13-14.21-.13-28.55-.48-42.76-.25-7.41-.97-14.94-.97-22.35,0-.97.97-3.53,1.45-4.5,2.92-5.83,8.38-6.92,14.33-6.92,10.21,0,20.29.73,30.49.73,5.1,0,12.16.24,12.16,7.05,0,3.64-5.84,5.22-8.63,5.83-9.84,2.3-23.57-.24-32.2,4.74-3.28,8.38-1.94,18.46-3.04,27.33,12.51-.97,24.78-2.43,37.3-2.43,4.97,0,13.12.24,13.12,7.05,0,5.1-5.46,7.17-9.71,7.53Z"/>
      <path class="cls-1" d="M1246.04,416.74c-10.81,17.01-29.64,27.46-51.51,27.46-7.29,0-15.07-1.09-21.87-3.4-19.56-6.68-24.54-23.93-24.54-41.06,0-30.73,27.22-49.56,59.78-49.56,27.95,0,46.77,14.58,46.77,40.33,0,9.36-3.52,18.34-8.63,26.24ZM1238.52,381.75c-5.22-12.76-21.87-17.25-35.6-17.25-19.92,0-38.87,11.66-40.81,30.37-.25,1.94-.25,3.89-.25,5.71,0,11.91,4.74,19.68,16.64,25.15,5.84,2.67,12.52,4.25,19.08,4.25,21.62,0,42.53-18.34,42.53-37.9,0-3.16-.38-7.29-1.58-10.33ZM1189.2,344.82c-5.72,0-10.82-1.34-10.82-8.02,0-5.83,5.96-14.46,12.28-14.46,4.62,0,8.5,5.59,8.5,9.84,0,5.47-3.88,12.64-9.95,12.64ZM1217.75,344.58c-4.5,0-8.15-4.13-8.15-8.51,0-5.71,5.48-9.23,9.36-12.63,1.1-.97,2.31-1.7,3.77-1.7,4.25,0,7.53,4.86,7.53,8.75,0,6.07-6.07,14.09-12.5,14.09Z"/>
      <path class="cls-1" d="M1333.7,388.92c-8.26,5.22-17.49,8.99-25.51,14.7,9.35,5.59,38.63,16.64,38.63,29.04,0,2.06-.6,7.04-3.52,7.04-.24,0-.6,0-.85-.12-12.03-3.04-25.15-16.04-40.21-20.65-5.22-1.58-10.57-3.16-16.04-3.16-1.34,0-2.67,0-4.02.12-.84,2.43-1.21,4.98-1.21,7.53,0,3.52.73,6.92.73,10.45,0,4.98-2.43,9.23-7.89,9.23-4.5,0-7.42-4.13-7.42-8.38,0-.48.12-.85.12-1.34.5-4.37.61-8.74.61-13.12,0-9.96-.12-20.04-.12-30.01,0-7.53-.97-15.06-.97-22.59,0-4.86,1.21-9.6,1.21-14.46,0-1.46-.12-2.79-.12-4.25,0-2.31.48-3.4,2.43-4.74,4.73-3.28,16.03-3.89,21.74-3.89,14.94,0,60.13,2.68,60.13,24.05,0,9.97-9.84,19.56-17.73,24.54ZM1306.24,356.85c-7.53,0-14.94.73-22.36,1.82-2.91,5.22-3.39,16.4-3.39,22.47,0,4.62.12,9.35,1.34,13.85,16.76-3.4,45.8-12.27,52.84-29.52-6.31-7.66-19.31-8.63-28.43-8.63Z"/>
    </g>
    <g>
      <path d="M601.61,589.45c-11.9,0-27.21-2.92-34.99-12.75-1.58-1.95-3.04-4.25-3.04-6.92,0-5.59,4.86-10.46,10.45-10.46,5.1,0,14.82,10.09,26.6,10.09,6.56,0,26.12-3.04,26.12-11.91,0-5.83-17.61-7.41-21.99-8.01-5.47-.85-11.06-1.46-16.52-2.07-12.64-1.46-33.77-4.01-33.77-20.9,0-15.54,13.73-34.74,27.82-40.81,6.44-2.79,13.61-3.89,20.53-3.89,14.95,0,34.99,6.2,40.33,21.75.49,1.21.61,2.55.61,3.89,0,5.95-4.25,10.81-10.33,10.81-9.59,0-14.21-16.89-29.76-16.89-9.72,0-22.35,5.83-27.57,14.34-1.09,1.82-2.19,3.89-2.19,6.07,0,3.05,14.82,4.02,17.74,4.5,18.34,2.67,54.06,5.1,54.06,30.62,0,21.01-26,32.55-44.1,32.55Z"/>
      <path d="M714.04,582.29c-10.45,2.54-30.73,8.38-40.58,8.38-2.19,0-4.61-.25-6.68-.97-4.62-1.7-6.93-7.29-7.17-11.91-.73-17.25-.85-34.62-.85-51.87,0-11.42-.24-19.44.37-30.86.61-11.54,14.33-10.33,22.6-10.33,4.86,0,9.72-.73,14.58-.73,7.41,0,21.38.97,21.38,11.18,0,8.87-13.61,10.57-20.16,10.57-4.25,0-8.38-.73-12.64-.73-2.43,0-4.98.12-7.17,1.34-.12,2.19-.12,4.37-.12,6.56,0,5.95.24,8.38.85,14.33h.97c6.2,0,12.39-.73,18.59-.73,5.59,0,19.68.73,19.68,8.51,0,5.35-7.89,9.84-12.51,10.81-8.5,1.82-21.14-.48-28.18,5.47l-.24,15.67c2.3.85,4.86,1.22,7.29,1.22,10.08,0,19.68-4.25,29.76-4.25,4.01,0,12.03,1.46,12.03,6.69s-7.29,10.56-11.79,11.66Z"/>
      <path d="M827.67,587.87c-2.19,0-4.49-.84-6.43-1.82-11.18-5.22-22.36-10.45-33.9-14.94-9.11-3.53-18.47-6.32-28.19-7.29-1.34,2.79-.85,6.07-.85,9.11,0,6.56-4.13,15.3-11.66,15.3-5.1,0-8.87-4.61-8.87-9.48,0-3.89.73-7.78,1.22-11.66.97-8.13,1.82-16.4,1.82-24.66,0-15.67-1.21-31.34-1.21-47.01,0-9.48,23.2-11.42,30.01-11.42,14.09,0,28.06,1.7,41.91,3.76,8.87,1.34,16.15,4.01,18.35,13.73.36,1.58.47,3.28.47,4.86,0,19.31-20.52,36.69-36.32,44.7,10.93,4.99,41.3,15.07,41.3,29.16,0,4.12-3.52,7.65-7.66,7.65ZM781.26,505.02c-7.53,0-15.07.12-22.47.85-.97,3.28-1.46,6.68-1.46,10.09,0,7.53,1.82,14.95,2.06,22.47,1.34.25,2.68.37,4.13.37,10.33,0,19.93-5.71,28.19-11.42,4.13-2.91,17.13-11.41,17.13-16.64,0-5.83-23.57-5.71-27.57-5.71Z"/>
      <path d="M858.34,590.66c-5.83,0-9.72-7.66-9.72-12.76,0-12.63-.12-25.26-.12-37.9,0-13.36.38-26.73.38-40.09,0-5.83.97-13.97,8.74-13.97s10.68,4.25,10.68,11.79c0,4.86-.73,9.84-.73,14.7,0,20.17,1.46,40.45,1.46,60.62,0,2.55.73,4.86.73,7.41,0,6.57-5.34,10.21-11.43,10.21Z"/>
      <path d="M908.54,591.4c-2.67.6-5.47,1.45-8.27,1.45-7.04,0-12.03-2.79-12.75-10.21-.73-7.78-.37-15.79-.37-23.56v-18.83c0-13.12,0-26.36-.73-39.48-.12-1.7-.24-3.53-.24-5.23,0-15.3,25.38-12.63,35.23-12.63,4.98,0,9.83-.37,14.82-.37,6.31,0,17.61.37,17.61,9.23,0,8.26-8.98,11.18-15.91,11.18s-13.97-1.09-21.02-1.09c-3.65,0-7.41.36-10.93,1.58-.73,5.46-1.22,10.93-1.22,16.52,0,4.13.12,8.51,1.45,12.51,8.99-1.34,18.1-1.57,27.21-2.3,1.45-.12,2.92-.25,4.38-.25,6.68,0,14.32,1.7,14.32,9.96,0,4.74-3.52,7.29-7.65,8.51-3.29.97-6.68,1.1-9.96,1.45-9.59.98-19.07,2.31-28.43,4.62l-.12,1.82c-.37,4.62.48,9.24,1.09,13.85.85.13,1.82.25,2.67.25,4.5,0,9.12-.73,13.61-1.1,6.69-.48,13.24-2.42,20.04-2.42,5.34,0,13,3.04,13,9.35,0,11.06-39.61,13.25-47.86,15.2Z"/>
      <path d="M1004.55,544.5c-5.22,1.1-12.76,1.46-17.25,4.13.37,5.46.12,11.05.12,16.52,0,4.25.12,8.38,1.22,12.51.25.73.37,1.45.37,2.3,0,4.62-4.98,9.6-9.59,9.6-4.02,0-8.63-4.01-8.99-8.01-2.19-25.88-1.7-52.24-2.68-78.24-.12-2.55-.36-4.98-.36-7.53,0-13.25,11.78-13.97,21.98-13.97,7.05,0,37.67-.48,40.82,5.95.73,1.34,1.1,2.92,1.1,4.5,0,4.74-4.74,6.81-8.63,7.78-9.36,2.43-21.27,3.28-30.86,3.28-4.49,0-5.58.73-5.58,5.23,0,5.71.36,11.41,1.21,17.12,8.74,0,17.37-2.3,26.12-2.3,2.08,0,4.02.25,6.07.49,5.72.73,13.12.13,13.12,8.02,0,10.81-20.64,10.93-28.18,12.63Z"/>
      <path d="M1143.21,561.38c-11.29,19.56-30.85,31.71-53.57,31.71-33.9,0-48.84-19.57-48.84-51.88,0-35.47,28.31-57.46,62.2-57.46,29.28,0,49.2,17.37,49.2,47.26,0,10.69-3.64,21.14-8.99,30.37ZM1131.31,522.14c-4.62-13.12-20.77-17.61-33.3-17.61-18.82,0-36.44,12.03-38.38,31.59-.25,2.06-.25,4.01-.25,6.07,0,12.27,4.25,20.04,15.3,25.75,5.6,2.8,11.79,4.5,17.98,4.5,20.29,0,40.09-19.32,40.09-39.73,0-3.4-.37-7.29-1.45-10.57Z"/>
      <path d="M1226.62,578.52c-10.69,9.59-34.87,13.97-48.96,13.97-7.42,0-12.15-.85-13.49-9.23-.97-6.07-.85-12.51-.85-18.72,0-9.96.12-66.08,2.2-72.04,1.21-3.52,4.49-5.22,8.01-5.22,5.1,0,9.83,3.04,9.83,8.63,0,20.16-.47,40.45-.47,60.62,0,4.25,0,8.38.12,12.63.97.37,2.06.61,3.15.61,7.29,0,13.73-.85,20.77-2.8,5.1-1.34,9.11-2.79,14.45-2.79,4.63,0,8.87,4.01,8.87,8.26,0,1.94-2.19,4.74-3.64,6.07Z"/>
      <path d="M1327.37,593.34c-12.03,0-24.41-15.3-32.8-22.84-6.69-6.07-26.85-19.8-35.24-22.11-.47,2.07-.6,4.25-.6,6.32,0,6.44,1.57,12.87,1.57,19.31,0,5.72-.97,13.61-8.38,13.61-6.68,0-11.9-6.44-11.9-12.88,0-.73.24-1.58.24-2.3l.97-78.24c0-4.86,6.81-7.29,10.82-7.29,6.92,0,8.98,4.62,8.98,10.69,0,6.56-1.94,12.88-2.06,19.31,9.6-3.28,17.86-9.47,25.88-15.67,6.43-4.98,24.65-19.19,32.43-19.19,4.13,0,10.21,4.61,10.21,9.11-.12,6.32-3.4,9.84-8.38,13.12-3.89,2.55-8.14,4.37-12.28,6.56-10.2,5.35-20.16,13.48-28.55,21.39,3.64,3.89,7.66,7.41,11.79,10.68,9.6,7.77,45.19,31.47,45.19,43.01,0,4.49-3.52,7.41-7.89,7.41Z"/>
    </g>
  </g>
</svg>